<?xml version="1.0" standalone="no"?>
<!DOCTYPE svg PUBLIC "-//W3C//DTD SVG 1.1//EN" "http://www.w3.org/Graphics/SVG/1.1/DTD/svg11.dtd" >
<!--
2013-9-30: Created.
-->
<svg>
<metadata>
Created by iconfont
</metadata>
<defs>

<font id="iconfont" horiz-adv-x="1024" >
  <font-face
    font-family="iconfont"
    font-weight="500"
    font-stretch="normal"
    units-per-em="1024"
    ascent="896"
    descent="-128"
  />
    <missing-glyph />
    
    <glyph glyph-name="x" unicode="x" horiz-adv-x="1001"
d="M281 543q-27 -1 -53 -1h-83q-18 0 -36.5 -6t-32.5 -18.5t-23 -32t-9 -45.5v-76h912v41q0 16 -0.5 30t-0.5 18q0 13 -5 29t-17 29.5t-31.5 22.5t-49.5 9h-133v-97h-438v97zM955 310v-52q0 -23 0.5 -52t0.5 -58t-10.5 -47.5t-26 -30t-33 -16t-31.5 -4.5q-14 -1 -29.5 -0.5
t-29.5 0.5h-32l-45 128h-439l-44 -128h-29h-34q-20 0 -45 1q-25 0 -41 9.5t-25.5 23t-13.5 29.5t-4 30v167h911zM163 247q-12 0 -21 -8.5t-9 -21.5t9 -21.5t21 -8.5q13 0 22 8.5t9 21.5t-9 21.5t-22 8.5zM316 123q-8 -26 -14 -48q-5 -19 -10.5 -37t-7.5 -25t-3 -15t1 -14.5
t9.5 -10.5t21.5 -4h37h67h81h80h64h36q23 0 34 12t2 38q-5 13 -9.5 30.5t-9.5 34.5q-5 19 -11 39h-368zM336 498v228q0 11 2.5 23t10 21.5t20.5 15.5t34 6h188q31 0 51.5 -14.5t20.5 -52.5v-227h-327z" />
    

    
    <glyph glyph-name="weibo" unicode="&#58924;" d="M481.568-18.207c-201.243-9.402-363.9 91.502-363.9 225.802 0 134.451 162.657 242.237 363.9 251.526 201.356 9.252 364.352-73.713 364.352-207.863 0-134.263-162.995-260.326-364.352-269.465M910.043 418.052c-47.8 9.289-24.558 35.014-24.558 35.014s46.785 77.098-9.252 133.134c-69.425 69.425-238.137-8.838-238.137-8.838-64.461-19.97-47.387 9.139-38.248 58.707 0 58.406-20.008 157.241-191.691 98.835-171.495-58.669-318.733-264.313-318.733-264.313-102.37-136.632-88.831-242.237-88.831-242.237 25.574-233.173 273.301-297.145 465.97-312.301 202.71-15.908 476.312 69.877 559.277 246.073 82.927 176.535-67.808 246.374-115.797 255.926M1008.618 500.159c16.322 0 30.162 12.072 32.494 27.793 0.301 1.203 0.451 2.219 0.451 3.535 24.709 222.267-182.101 184.019-182.101 184.019-18.353 0-33.096-14.855-33.096-33.396 0-18.24 14.743-33.096 33.096-33.096 148.554 32.795 115.759-115.759 115.759-115.759 0-18.391 14.968-33.096 33.396-33.096M984.508 888.088c-71.494 16.736-145.056 2.332-165.666-1.617-1.58-0.15-3.084-1.655-4.551-1.956-0.715-0.15-1.166-0.903-1.166-0.903-20.309-5.717-35.164-24.521-35.164-46.747 0-26.476 21.474-48.289 48.252-48.289 0 0 26.025 3.498 43.701 10.418 17.488 7.033 165.59 5.228 239.19-118.317 40.128-90.148 17.638-150.509 14.818-160.175 0 0-9.553-23.468-9.553-46.522 0-26.627 21.474-43.363 48.064-43.363 22.264 0 40.918 3.046 46.371 40.655h0.301c78.978 263.26-96.654 386.954-224.598 416.816M441.421 370.583c-202.409-23.693-179.017-213.278-179.017-213.278s-2.068-60.061 54.269-90.637c118.429-64.123 240.356-25.273 301.997 54.269 61.64 79.58 25.461 273.151-177.249 249.646M390.386 104.465c-37.797-4.4-68.26 17.375-68.26 49.004 0 31.441 27.041 64.423 64.875 68.372 43.4 4.137 71.644-20.873 71.644-52.502 0-31.478-30.613-60.587-68.26-64.875M509.681 206.121c-12.787-9.553-28.545-8.236-35.314 3.234-7.033 11.17-4.4 29.109 8.537 38.549 15.006 11.17 30.613 7.935 37.345-3.272 6.807-11.433 1.956-28.658-10.568-38.511z"  horiz-adv-x="1229" />

    
    <glyph glyph-name="xuanzhong" unicode="&#58978;" d="M512 784c-220.9 0-400-179.1-400-400s179.1-400 400-400 400 179.1 400 400S732.9 784 512 784zM512 234c-82.8 0-150 67.2-150 150s67.2 150 150 150 150-67.2 150-150S594.8 234 512 234z"  horiz-adv-x="1024" />

    
    <glyph glyph-name="chahao" unicode="&#58903;" d="M558.096874 386.755764l278.304494 276.863678c13.159718 13.094226 13.226233 34.31248 0.132006 47.472198-13.123902 13.189394-34.305317 13.226233-47.465035 0.132006L510.692215 434.330292 234.740302 711.122339c-13.062504 13.093203-34.310434 13.159718-47.470151 0.066515-13.129019-13.093203-13.160741-34.342156-0.066515-47.501874l275.885398-276.725532L184.918593 110.266615c-13.160741-13.094226-13.226233-34.310434-0.134053-47.472198 6.54609-6.581905 15.172561-9.900487 23.799032-9.900487 8.56098 0 17.125029 3.252067 23.672142 9.768481l278.236955 276.761348 278.473339-279.31245c6.54609-6.582929 15.142885-9.871835 23.768333-9.871835 8.594749 0 17.155728 3.288906 23.701818 9.80532 13.123902 13.093203 13.159718 34.305317 0.066515 47.465035L558.096874 386.755764 558.096874 386.755764zM558.096874 386.755764"  horiz-adv-x="1024" />

    
    <glyph glyph-name="qushitu" unicode="&#58880;" d="M135.296-100.864 282.496-100.864 284.352 697.408 135.296 697.408ZM350.016 505.344 350.016-100.864 496.96-100.864 496.064 505.344ZM564.48 348.736l132.992 0 0-449.6-132.992 0 0 449.6ZM766.016 202.112l147.136 0 0-302.976-147.136 0 0 302.976ZM663.872 457.472 668.48 393.856 922.368 462.4 865.28 688.064 793.28 676.864 822.144 568.96 315.2 868.864 264.704 795.776 785.472 489.408Z"  horiz-adv-x="1024" />

    
    <glyph glyph-name="weibiaoti35" unicode="&#58933;" d="M838.4 540.8 512 214.4c-6.4-6.4-14.4-9.6-22.4-9.6-8 0-16.8 3.2-22.4 9.6L140 540.8c-12 12-14.4 32.8-2.4 45.6 12 13.6 33.6 13.6 46.4 0.8l305.6-305.6c0 0 0 0 0.8 0l305.6 305.6c12.8 12.8 33.6 12.8 46.4-0.8C852.8 573.6 851.2 553.6 838.4 540.8z"  horiz-adv-x="1024" />

    
    <glyph glyph-name="shuzizichan" unicode="&#58929;" d="M512 810.666667C276.48 810.666667 85.333333 619.52 85.333333 384s191.146667-426.666667 426.666667-426.666667c235.52 0 426.666667 191.146667 426.666667 426.666667S747.52 810.666667 512 810.666667zM572.16 124.16 572.16 42.666667l-113.92 0 0 82.346667c-72.96 15.36-134.826667 62.293333-139.52 145.066667l83.626667 0c4.266667-44.8 34.986667-79.786667 113.066667-79.786667 83.626667 0 102.4 41.813333 102.4 67.84 0 35.413333-18.773333 68.693333-113.92 91.306667-105.813333 25.6-178.346667 69.12-178.346667 156.586667 0 73.386667 59.306667 121.173333 132.693333 136.96L458.24 725.333333l113.92 0 0-83.2c79.36-19.2 119.04-79.36 121.6-144.64L610.133333 497.493333c-2.133333 47.36-27.306667 79.786667-94.72 79.786667-64 0-102.4-29.013333-102.4-69.973333 0-35.84 27.733333-59.306667 113.92-81.493333 86.186667-22.186667 178.346667-59.306667 178.346667-166.826667C704.853333 180.906667 646.4 138.24 572.16 124.16z"  horiz-adv-x="1024" />

    
    <glyph glyph-name="ai-list" unicode="&#58896;" d="M192 672c0-35.36-28.64-64-64-64h-64c-35.36 0-64 28.64-64 64v64c0 35.36 28.64 64 64 64h64c35.36 0 64-28.64 64-64v-64zM192 352c0-35.328-28.64-64-64-64h-64c-35.36 0-64 28.672-64 64v64c0 35.36 28.64 64 64 64h64c35.36 0 64-28.64 64-64v-64zM192 32c0-35.328-28.64-64-64-64h-64c-35.36 0-64 28.672-64 64v64c0 35.36 28.64 64 64 64h64c35.36 0 64-28.64 64-64v-64zM1024 672c0-35.36-28.64-64-64-64h-576c-35.36 0-64 28.64-64 64v64c0 35.36 28.64 64 64 64h576c35.36 0 64-28.64 64-64v-64zM1024 352c0-35.328-28.64-64-64-64h-576c-35.36 0-64 28.672-64 64v64c0 35.36 28.64 64 64 64h576c35.36 0 64-28.64 64-64v-64zM1024 32c0-35.328-28.64-64-64-64h-576c-35.36 0-64 28.672-64 64v64c0 35.36 28.64 64 64 64h576c35.36 0 64-28.64 64-64v-64z"  horiz-adv-x="1024" />

    
    <glyph glyph-name="shezhi" unicode="&#58926;" d="M1017.950574 459.957032C955.922664 478.831939 902.798568 520.881152 870.427691 577.353297 838.032427 633.740126 828.378489 701.006632 843.100284 764.388406 803.636844 796.521472 759.776385 822.019288 712.256819 840.400195 664.706759 795.338321 603.343581 770.712576 537.619973 770.712576 472.902618 770.712576 410.16728 795.905509 362.958735 840.400195 315.475763 822.019288 271.615299 796.521472 232.133567 764.388406 246.861463 700.970038 237.164835 633.703532 204.769566 577.353297 172.44748 520.881152 119.274598 478.831939 57.344259 459.957032 53.246065 434.209145 51.190865 408.760104 51.190865 384.006252 51.190865 359.246309 53.246065 333.785034 57.344259 308.055417 119.335586 289.180564 172.44748 247.094757 204.842749 190.640883 237.658813 133.351532 247.166389 67.512051 232.139663 3.617954 271.6214-28.533329 315.475763-54.006838 362.958735-72.412106 410.246559-27.91742 472.902618-2.718397 537.619973-2.718397 603.343581-2.718397 664.706759-27.344141 712.256819-72.412106 759.697106-54.006838 803.581957-28.533329 843.039297 3.617954 828.378489 66.963187 838.087314 134.308972 870.427691 190.640883 902.725384 247.094757 955.922664 289.180564 1017.950574 308.055417 1022.006083 333.858223 1024.067379 359.301174 1024.067379 384.006252 1024.067379 408.686915 1022.006083 434.129866 1017.950574 459.957032M1065.50673 282.588052C1063.579605 272.537762 1055.999159 264.59136 1046.07689 262.304445 989.91574 249.339042 943.31095 214.711673 914.721151 164.911266 886.180136 115.104768 879.721817 57.217779 896.480515 1.867722 899.450487-7.865506 896.419527-18.415939 888.765903-25.118181 837.288405-69.875119 778.492702-104.057263 714.104665-126.554651 704.505613-129.908844 693.857625-127.316992 686.978506-119.809725 647.752909-77.455576 594.714198-54.226351 537.613878-54.226351 480.53795-54.226351 427.499234-77.455576 388.267542-119.809725 383.297256-125.164221 376.473029-128 369.526827-128 366.672729-128 363.910106-127.56092 361.104788-126.554651 296.66187-103.965804 237.927149-69.875119 186.467948-25.038902 178.771634-18.415939 175.722377-7.804551 178.735039 1.928677 195.530326 57.211635 189.01712 115.104768 160.470011 164.911266 131.941198 214.711673 85.263225 249.278033 29.175258 262.304445 19.252984 264.59136 11.672544 272.537762 9.751514 282.588052 3.293195 316.849475 0 350.982845 0 384.006252 0 417.011389 3.293195 451.138614 9.751514 485.400037 11.672544 495.438147 19.252984 503.396729 29.175258 505.683645 85.263225 518.710056 131.886312 553.276416 160.470011 603.101184 189.01712 652.864997 195.536427 710.703266 178.735039 766.047232 175.722377 775.79873 178.771634 786.404029 186.425258 793.051405 237.927149 837.844938 296.66187 872.033172 361.110889 894.561064 370.709941 897.915203 381.315244 895.305081 388.267542 887.77949 427.499234 845.461989 480.53795 822.20835 537.619973 822.20835 594.720294 822.20835 647.752909 845.461989 686.984607 887.77949 693.86372 895.305081 704.542208 897.915203 714.104665 894.561064 778.590278 872.033172 837.324999 837.844938 888.765903 793.11236 896.425628 786.404029 899.52367 775.853595 896.523205 766.047232 879.721817 710.758131 886.180136 652.864997 914.721151 603.101184 943.31095 553.276416 989.91574 518.710056 1046.07689 505.683645 1055.999159 503.396729 1063.579605 495.438147 1065.50673 485.400037 1071.946757 451.083749 1075.258244 416.932109 1075.258244 384.006252 1075.252149 351.0438 1071.940657 316.910484 1065.50673 282.588052M713.403338 351.854915C710.866357 337.822235 697.522828 328.583006 683.636526 331.138264 669.731932 333.66916 660.480496 347.073698 663.029668 361.033189 664.664069 369.967481 665.408086 377.243001 665.408086 384.006252 665.408086 454.925797 608.063828 512.556679 537.613878 512.556679 467.133429 512.556679 409.844057 454.925797 409.844057 384.006252 409.844057 313.062292 467.133429 255.431411 537.613878 255.431411 544.322231 255.431411 551.573358 256.193752 560.471078 257.797659 574.375677 260.438285 587.646027 251.089273 590.164712 237.032232 592.713884 223.036147 583.47465 209.643843 569.576152 207.094676 557.61698 204.90531 547.47516 203.917312 537.613878 203.917312 438.88515 203.917312 358.653192 284.704283 358.653192 384.006252 358.653192 483.28386 438.88515 564.070777 537.613878 564.070777 636.28772 564.070777 716.605052 483.28386 716.605052 384.006252 716.605052 374.065691 715.592704 363.814104 713.403338 351.854915"  horiz-adv-x="1078" />

    
    <glyph glyph-name="dingwei" unicode="&#58894;" d="M512.000512 637.358335c73.03848 0 132.234697-60.411905 132.234697-134.961808 0-74.523297-59.196217-134.962831-132.234697-134.962831-73.042573 0-132.23879 60.439534-132.23879 134.962831C379.761722 576.94643 438.957939 637.358335 512.000512 637.358335zM802.107819 502.396527c0 163.40051-129.919978 295.988248-290.107307 295.988248-160.191422 0-290.107307-132.587738-290.107307-295.988248 0-59.737546 17.320481-115.185392 47.136553-161.782663l-0.459464 0 217.420845-354.566388c4.692882-9.740852 14.594393-16.432251 26.010397-16.432251 11.411911 0 21.233604 6.691399 25.982768 16.432251l217.444381 354.566388-0.567935 0C784.703427 387.212158 802.107819 442.658981 802.107819 502.396527z"  horiz-adv-x="1024" />

    
    <glyph glyph-name="duihuakuang" unicode="&#58939;" d="M513.881633 869.849315C277.720272 869.849315 86.922444 680.869871 86.922444 446.539059c0-133.042521 62.712991-252.486686 160.113953-329.58377L247.036397-97.726021l186.787652 128.505681c26.67978-4.534407 53.368074-7.563021 80.057585-7.563021 236.156496 0 426.957973 188.978228 426.957973 423.32242C940.840822 680.869871 750.038128 869.849315 513.881633 869.849315L513.881633 869.849315zM513.881633 83.69405c-30.687524 0-61.378698 4.534407-90.734362 10.578256l-125.417468-86.174412 1.336726 140.604326c-96.061804 66.523693-158.777227 175.376223-158.777227 297.836839 0 201.069574 166.780553 362.836494 373.592332 362.836494 206.809346 0 373.587466-161.768136 373.587466-362.836494C887.470316 245.458537 720.690979 83.69405 513.881633 83.69405L513.881633 83.69405zM513.881633 83.69405"  horiz-adv-x="1035" />

    
    <glyph glyph-name="fanhui" unicode="&#59155;" d="M276.999778 422.652322l595.889619 0 0-77.289294L276.999778 345.363028 571.131749 85.526141l-56.592926-54.657854L149.378146 384.004093l28.297486 27.328415 336.861144 325.798181 56.592926-54.642504L276.999778 422.652322z"  horiz-adv-x="1024" />

    
    <glyph glyph-name="fenpei" unicode="&#58962;" d="M243.481384 166.858518c0 26.991748 22.189372 48.873104 49.15963 48.873104l616.894002 0c27.15036 0 49.15963-21.693068 49.15963-48.873104 0-26.991748-22.189372-48.873104-49.15963-48.873104L292.641013 117.985414C265.491677 117.985414 243.481384 139.678482 243.481384 166.858518zM243.481384-11.944797c0 26.991748 22.189372 48.873104 49.15963 48.873104l616.894002 0c27.15036 0 49.15963-21.693068 49.15963-48.873104 0-26.991748-22.189372-48.873104-49.15963-48.873104L292.641013-60.817901C265.491677-60.817901 243.481384-39.124833 243.481384-11.944797zM549.888935 733.818247l0-42.729174c0-23.054065-17.433044-42.10905-39.740096-43.402509-160.066579-9.336646-328.554968-173.447331-357.051999-335.317998C238.093676 423.727817 377.358487 514.119523 510.654352 504.445186c22.086018-1.543146 39.234583-20.499893 39.234583-43.369763l0-46.000684c-0.010233-6.173606 0.463558-8.934486 0.800225-10.109242L751.517095 568.805006c2.589988 2.043542 3.758604 4.564969 3.758604 7.271614s-1.168616 5.250584-3.1262 6.782473L552.373523 745.828792c-1.105171-2.314719-1.915629-8.010441-2.368954-11.206226L549.888935 733.818247zM121.283274 118.572792c-16.674775-3.956102-35.140335 12.717649-40.403199 31.239492-10.748808 37.793768-16.200984 76.739778-16.200984 115.751281 0 210.339566 193.027272 428.2649 400.992767 464.320071l0 7.217379c0 2.381234 0.189312 4.750187 0.557702 7.097652l0.442068 2.989077c2.158153 15.228843 7.189749 50.848085 41.003879 72.750931 13.580297 8.783037 28.371164 13.261025 43.972491 13.261025 18.86465 0 34.213219-6.695492 43.76169-12.294001 1.853208-1.086751 3.631714-2.314719 5.305843-3.684926l203.01781-165.632341c22.159696-17.369599 35.761482-45.782719 35.761482-75.511811 0-29.717835-13.601786-58.119699-36.392862-76.000951l-202.38643-165.120688c-14.727423-11.782348-32.318056-18.130939-49.867758-18.130939-15.432481 0-30.370705 4.619204-44.404326 13.750165-27.128871 17.652032-40.856523 46.12041-40.771589 84.587514l0 1.521656c-134.737704-15.565511-284.297998-138.892327-317.449026-255.621888C142.958946 142.550902 131.61048 118.572792 121.283274 118.572792z"  horiz-adv-x="1024" />

    
    <glyph glyph-name="xiangyou" unicode="&#58925;" d="M237.685-16.71l80.141-80.137 480.85 480.844-480.85 480.844-80.146-80.141 400.717-400.707z"  horiz-adv-x="1024" />

    
    <glyph glyph-name="11000" unicode="&#58959;" d="M328.512 761.76l261.248-150.848c20.608-11.904 46.976-4.832 58.88 15.776s4.832 46.976-15.776 58.88l-261.248 150.848c-20.608 11.904-46.976 4.832-58.88-15.776-11.904-20.608-4.832-46.976 15.776-58.88zM91.488 351.2l261.248-150.848c20.608-11.904 46.976-4.832 58.88 15.776s4.832 46.976-15.776 58.88l-261.248 150.848c-20.608 11.904-46.976 4.832-58.88-15.776-11.904-20.608-4.832-46.976 15.776-58.88zM991.68 229.6l-477.312 250.688 53.856 93.312-261.248 150.848-150.848-261.28 261.248-150.848 53.888 93.312 455.776-288c30.912-17.856 70.464-7.264 88.32 23.648 17.824 30.944 7.232 70.464-23.68 88.32zM518.592 12c0 23.808-19.296 43.104-43.104 43.104h-387.872c-23.808 0-43.104-19.296-43.104-43.104s0-43.104 0-43.104l-44.512 0.896 1.408-44h560.256l1.984 41.28-42.4 1.824c0.032 0-2.656 19.296-2.656 43.104z"  horiz-adv-x="1025" />

    
    <glyph glyph-name="tuichudenglu" unicode="&#59296;" d="M242.017544-0.65773l0-0.002047c-33.651424 0-60.917418 27.285436-60.917418 60.917418L181.100126 710.044798c0 33.67189 27.265994 60.917418 60.917418 60.917418l183.386704 0-0.63445 60.917418-182.752254 0c-67.283406 0-121.834836-54.533011-121.834836-121.834836l0-649.78511c0-67.263963 54.552453-121.835859 121.834836-121.835859l183.386704 0-0.63445 60.917418L242.017544-0.658753zM902.670166 418.186613 721.106993 599.750809c-12.115945 12.096503-31.766494 12.096503-43.883463 0-12.115945-12.136412-12.115945-31.768541 0-43.903929l130.083707-130.083707L434.923042 425.763173c-16.817014 0-30.458709-13.643742-30.458709-30.458709 0-16.814967 13.643742-30.458709 30.458709-30.458709l372.302331 0-129.980353-129.965004c-12.135388-12.135388-12.135388-31.847336 0-43.982724 12.137435-12.136412 31.807427-12.136412 43.942815 0L902.650723 372.381381c6.282077 6.282077 9.3039 14.583137 9.081843 22.813588C912.009881 403.479657 908.994198 411.854395 902.670166 418.186613z"  horiz-adv-x="1024" />

    
    <glyph glyph-name="xialasanjiao" unicode="&#59120;" d="M0 896h1740.8L870.4-128z"  horiz-adv-x="1740" />

    
    <glyph glyph-name="jiaoyi" unicode="&#59202;" d="M502.051929 828.189591h22.641673c43.485397-2.070148 86.884836-8.688893 128.389112-22.104437 104.888885-32.997532 196.365296-105.33914 253.357312-199.289905 2.25025 21.249977-6.215562 46.098921 6.841825 64.780399 15.437597 19.35686 50.238195 5.941316 48.031946-19.041682 0.361227-61.537542 0.273223-123.121132 0.044002-184.659697 1.037632-14.360056-10.352789-28.675086-25.076118-29.215392-14.674211-1.62194-27.949562 10.128685-29.571503 24.488741-20.078291 93.680613-77.113285 178.088024-154.451697 234.268558-61.58666 44.836161-135.908366 71.936379-211.940017 76.977185-95.256504 6.932899-192.94336-20.167319-270.012643-76.843132-77.517491-55.911404-134.330428-140.630924-154.587798-234.268558-1.485841-9.857509-7.113001-19.401886-17.061584-22.641673-17.376763-8.465812-40.738843 7.967462-37.185924 27.324322 19.044752 88.007403 64.289212 170.479743 130.012076 232.287437C273.952884 780.201647 387.48359 825.714214 502.051929 828.189591zM347.417059 621.425458c9.680477 13.731746 30.249955 17.602913 44.299949 8.554839 9.407254-5.763261 13.861706-16.297175 19.039635-25.480324 34.839483-66.084091 70.764694-131.583874 103.987353-198.524472 35.112706 70.40756 69.868277 140.992151 106.510825 210.590275 8.598842 19.131733 36.417421 24.26259 51.861158 10.44284 12.243859-9.994632 15.932878-28.89919 7.742335-42.584887-39.078017-71.353095-77.610612-142.974295-116.63951-214.32432 35.746132-0.091074 71.529103 0.267083 107.319237-0.091075 17.289782-0.406253 28.993335-21.428032 21.203928-36.68962-4.41352-12.199856-18.275225-16.654308-30.157857-16.070001-38.761815 0-77.478606-0.044002-116.191302 0.091075-0.361227-24.759917-0.088004-49.566906-0.180102-74.324776 41.819454-0.675382 83.777055 1.081635 125.549437-0.855484 17.831111-1.215688 28.900214-22.688745 20.48659-38.175461-5.315052-11.163247-18.235316-15.258519-29.805839-14.944364-38.712697-0.314155-77.514421 0.091074-116.230188-0.135076-0.094144-37.456077 0.1361-74.906014-0.044002-112.362091 0.944512-17.784038-14.767332-34.528398-32.729426-34.075073-18.140149-0.951675-34.659381 15.711843-33.626865 33.80492-0.092098 37.543058-0.044002 75.04416 0.093121 112.543216-43.039235 0.89744-86.165452-1.081635-129.155568 0.944512-19.312858 1.125637-30.29498 26.242687-18.819625 41.550325 6.03546 9.364275 17.73799 11.792581 28.134781 11.616571 39.887452 0.177032 79.817883-0.047072 119.704312 0.044003 0.044002 24.758893 0.044002 49.517787 0 74.233701-41.011043 0.177032-82.068134-0.181125-123.124201 0.135077-12.422937-0.272199-25.792433 7.021927-28.402887 19.942191-4.549619 14.899338 7.157004 32.636305 23.048949 32.726355 36.237319 0.358157 72.475662 0 108.761075 0.091075-38.176484 71.169923-76.304873 142.431943-114.524336 213.55991-6.845918 11.567453-6.257517 27.009144 1.889023 37.766139zM71.240019 311.531502c14.314007 12.603039 40.602743 4.097318 43.530423-15.125489 20.166295-96.020914 78.151941-183.081759 158.100807-239.760643 76.703963-55.507198 173.314301-81.84096 267.576152-74.950015 83.418898 5.533017 164.853605 37.766139 229.586932 90.662882 66.939575 54.785767 116.550483 131.403772 135.547139 216.033242 1.935072 9.724479 5.086855 20.529569 14.631232 25.391296 16.340153 10.531867 40.245609-2.028193 41.187051-21.383006-19.668968-100.253308-75.355245-192.941314-154.22657-257.901815-78.954213-66.221214-180.650383-103.272062-283.425118-106.648972h-25.837458c-49.608861 2.295276-99.129718 10.762111-145.768945 27.959796-97.638761 35.154661-182.361351 104.527658-235.977479 193.344496-1.393743-20.435425 4.457522-42.899042-4.861728-61.987796-12.287861-20.530592-48.885384-12.828167-49.694819 11.790534-1.217734 59.96779 0.088004 120.017444-0.633427 180.026166-0.271176 11.435447-0.271176 25.25622 10.265808 32.549324z"  horiz-adv-x="1024" />

    
    <glyph glyph-name="caiwu" unicode="&#59637;" d="M860.928 609.088h-688c-61.76 0-112-50.24-112-112v-424c0-61.76 50.24-112 112-112h688c61.744 0 112 50.24 112 112v424c0 61.776-50.256 112-112 112z m48-536c0-26.464-21.536-48-48-48h-688c-26.464 0-48 21.536-48 48v424c0 26.464 21.536 48 48 48h688c26.464 0 48-21.536 48-48v-424zM665.84 312c13.824 0 25.072 11.232 25.072 25.072s-11.248 25.088-25.072 25.088H572l95.696 95.68c9.792 9.808 9.792 25.68 0 35.472-9.792 9.808-25.664 9.808-35.472 0L518.288 379.344 404.32 493.312c-9.792 9.808-25.664 9.808-35.472 0-9.792-9.776-9.792-25.664 0-35.472l95.696-95.68H368c-13.856 0-25.072-11.248-25.072-25.088S354.144 312 368 312h123.84v-55.264H368c-13.856 0-25.072-11.232-25.072-25.088 0-13.84 11.216-25.056 25.072-25.056h123.84v-118.16c0-13.84 11.216-25.072 25.072-25.072 13.84 0 25.072 11.232 25.072 25.072v118.16h123.84c13.824 0 25.072 11.216 25.072 25.056 0 13.856-11.248 25.088-25.072 25.088h-123.84V312H665.84zM175.92 648.832h682c17.664 0 32 14.336 32 32 0 17.68-14.336 32-32 32h-682c-17.664 0-32-14.32-32-32 0-17.664 14.336-32 32-32zM260.928 751.488h512c17.664 0 32 14.336 32 32 0 17.68-14.336 32-32 32h-512c-17.664 0-32-14.32-32-32 0-17.664 14.32-32 32-32z"  horiz-adv-x="1024" />

    
    <glyph glyph-name="box-list" unicode="&#59121;" d="M91.38 776.91c0 15.305 12.37 27.712 27.71 27.712H273.98c15.305 0 27.711-12.37 27.711-27.711v-154.889c0-15.305-12.37-27.711-27.711-27.711h-154.89c-15.304 0-27.71 12.37-27.71 27.711V776.911z m315.465 0c0 15.305 12.37 27.712 27.711 27.712h154.889c15.304 0 27.711-12.37 27.711-27.711v-154.889c0-15.305-12.37-27.711-27.711-27.711h-154.89c-15.304 0-27.711 12.37-27.711 27.711V776.911z m315.465 0c0 15.305 12.37 27.712 27.711 27.712H904.91c15.304 0 27.71-12.37 27.71-27.711v-154.889c0-15.305-12.37-27.711-27.71-27.711H750.02c-15.305 0-27.711 12.37-27.711 27.711V776.911zM91.38 461.446c0 15.304 12.37 27.711 27.71 27.711H273.98c15.305 0 27.711-12.37 27.711-27.711v-154.889c0-15.304-12.37-27.71-27.711-27.71h-154.89c-15.304 0-27.71 12.37-27.71 27.71V461.445z m315.465 0c0 15.304 12.37 27.711 27.711 27.711h154.889c15.304 0 27.711-12.37 27.711-27.711v-154.889c0-15.304-12.37-27.71-27.711-27.71h-154.89c-15.304 0-27.711 12.37-27.711 27.71V461.445z m315.465 0c0 15.304 12.37 27.711 27.711 27.711H904.91c15.304 0 27.71-12.37 27.71-27.711v-154.889c0-15.304-12.37-27.71-27.71-27.71H750.02c-15.305 0-27.711 12.37-27.711 27.71V461.445zM91.38 145.979c0 15.305 12.37 27.711 27.71 27.711H273.98c15.305 0 27.711-12.37 27.711-27.711V-8.91c0-15.304-12.37-27.71-27.711-27.71h-154.89c-15.304 0-27.71 12.37-27.71 27.71V145.98z m315.465 0c0 15.305 12.37 27.711 27.711 27.711h154.889c15.304 0 27.711-12.37 27.711-27.711V-8.91c0-15.304-12.37-27.71-27.711-27.71h-154.89c-15.304 0-27.711 12.37-27.711 27.71V145.98z m315.465 0c0 15.305 12.37 27.711 27.711 27.711H904.91c15.304 0 27.71-12.37 27.71-27.711V-8.91c0-15.304-12.37-27.71-27.71-27.71H750.02c-15.305 0-27.711 12.37-27.711 27.71V145.98z"  horiz-adv-x="1024" />

    
    <glyph glyph-name="ren" unicode="&#58895;" d="M842.104 185.34c-6.77 5.79-13.803 11.09-21.11 15.774-99.195 70.735-181.42 110.94-302.125 110.94-119.583 0-200.804-39.493-299.34-109.007a191.477 191.477 0 0 1-26.755-19.81c-30.182-26.658-54.456-63.982-69.805-107.855V-56.68H916.61V68.934c-15.565 47.881-41.695 88.347-74.507 116.407zM276.035 592.348a238.554 238.554 0 1 1 477.108 0 238.554 238.554 0 1 1-477.108 0z"  horiz-adv-x="1024" />

    
    <glyph glyph-name="gonggao" unicode="&#59009;" d="M464.258-32.83c-30.464 27.47-62.711 56.138-96.758 86.001-34.04 29.858-65.695 57.333-94.964 82.415a12701.118 12701.118 0 0 1-102.129 85.105c-6.57-0.596-13.14-0.898-19.706-0.898-5.376-0.594-11.05-0.892-17.026-0.892h-15.226c-16.13 0-29.265 4.925-39.418 14.78C68.878 243.537 63.8 255.33 63.8 269.065V494.817h0.897l-0.897 0.897c0 16.723 5.227 30.458 15.677 41.21 10.45 10.748 23.443 16.123 38.973 16.123h51.062c54.947 46.586 104.82 88.39 149.613 125.418a5920.72 5920.72 0 0 0 56.438 47.03c18.517 15.233 35.24 29.116 50.17 41.657 14.934 12.541 27.476 22.995 37.628 31.355 10.153 8.362 16.422 13.438 18.814 15.23 17.918 13.142 32.4 19.112 43.446 17.918 11.05-1.195 19.712-6.57 25.985-16.128 6.268-9.552 10.597-21.198 12.987-34.936 2.388-13.736 3.583-26.277 3.583-37.623v-725.629c0-11.347-2.087-23.442-6.268-36.283-4.183-12.839-10.604-22.992-19.26-30.459-8.662-7.467-19.563-10.597-32.705-9.404-13.135 1.192-28.366 9.85-45.684 25.977z m289.366 532.126c12.541-17.316 22.545-34.787 30.013-52.407 7.462-17.615 11.198-38.97 11.198-64.052 0-23.888-3.884-45.387-11.65-64.502-7.764-19.11-17.614-36.428-29.561-51.957-4.777-6.57-9.856-12.391-15.233-17.47-5.37-5.073-12.243-7.611-20.603-7.611-10.752 0-19.859 3.88-27.322 11.643-7.467 7.765-11.199 17.02-11.199 27.773 0 4.776 0.892 9.552 2.686 14.334h-0.898a117.552 117.552 0 0 0 10.753 18.81 391.726 391.726 0 0 1 12.095 18.367c3.879 6.269 7.164 13.438 9.85 21.498 2.69 8.063 4.033 17.77 4.033 29.116 0 10.751-1.342 20.156-4.034 28.218-2.685 8.062-5.971 15.38-9.85 21.95a292.016 292.016 0 0 1-12.094 18.813c-4.183 5.97-7.468 12.243-9.856 18.809-1.794 4.181-2.686 8.958-2.686 14.334 0 10.751 3.732 20.008 11.199 27.77 7.462 7.766 16.569 11.646 27.322 11.646 8.36 0 15.233-2.538 20.603-7.611 5.378-5.078 10.457-10.9 15.234-17.471z m50.17-402.23c-7.17-5.376-15.53-8.062-25.088-8.062-11.942 0-22.243 4.331-30.904 12.988-8.661 8.66-12.992 18.962-12.992 30.908 0 13.14 5.079 24.186 15.232 33.144 0.595 0.599 1.193 1.045 1.79 1.347 0.6 0.297 1.194 0.744 1.793 1.342l0.897 0.898c16.723 11.346 32.253 24.784 46.582 40.313a296.978 296.978 0 0 1 37.629 50.614c10.752 18.214 19.11 37.622 25.082 58.229 5.975 20.603 8.959 41.953 8.959 64.05 0 44.793-11.346 85.705-34.041 122.733s-51.067 67.486-85.108 91.373c-12.541 8.958-18.814 20.904-18.814 35.833 0 11.946 4.33 22.247 12.992 30.908 8.66 8.661 18.963 12.988 30.904 12.988 10.154 0 19.112-3.281 26.877-9.85 22.1-15.53 42.707-33.595 61.819-54.201 19.111-20.603 35.533-43 49.273-67.188 13.736-24.186 24.484-50.015 32.247-77.49 7.765-27.47 11.65-55.841 11.65-85.104 0-29.864-3.885-58.526-11.65-86.001-7.764-27.47-18.66-53.45-32.698-77.936-14.033-24.487-30.607-47.031-49.718-67.639-19.115-20.603-40.02-38.67-62.713-54.197z"  horiz-adv-x="1024" />

    
    <glyph glyph-name="web__bitebijiaoyi" unicode="&#58938;" d="M712.481 393.86l-25.574 18.7 18.34 25.767c15.83 22.32 24.208 49.199 24.208 77.639 0 69.347-50.73 125.777-113.09 125.777h-38.74V757.072H538.62v-115.328h-94.975V757.072h-39.002v-115.328H299.437v-17.43c34.95-17.713 56.578-50.899 56.578-93.597V269.81c0-43.015-21.97-75.195-56.578-89.945v-12.683h105.206v-108.63h39.002v108.63h94.975v-108.63h39.006v108.63h72.297c62.363 0 113.09 55.488 113.09 123.72 0.083 41.407-18.783 79.918-50.532 102.959z m-49.34 109.53c0-33.99-17.014-63.877-42.751-82.319H426.444V604.847h135.184c55.96 0 101.513-45.526 101.513-101.457zM595.3 199.85H426.444V394.553H635.39c36.073-15.583 61.422-51.452 61.422-93.19 0-55.986-45.552-101.511-101.513-101.511z"  horiz-adv-x="1024" />

    
    <glyph glyph-name="jueceliubankuaidi" unicode="&#58899;" d="M447.086 60.993l203.386 285.042c14.94 20.929 14.94 55.054 0 76.020l-203.386 285.042c-14.94 20.929-39.295 20.929-54.235 0l-172.721-285.042c-14.94-20.967-14.94-55.054 0-76.020l172.686-285.042c14.974-20.967 39.328-20.967 54.269 0zM266.555 384.004l153.395 264.608c-1.462 0.427 0.891 2.137 0 0l174.111-238.297c9.948-14.512 9.948-38.117 0-52.628l-174.111-238.297-153.395 264.608zM546.25 707.021l-3.28-5.422 199.537-279.62c14.94-20.967 14.94-55.054 0-76.020l-199.537-279.62 3.28-5.422c14.94-20.967 39.295-20.929 54.235 0l203.386 285.042c14.94 20.929 14.94 55.054 0 76.020l-203.386 285.042c-14.944 20.967-39.26 20.967-54.235 0z"  horiz-adv-x="1024" />

    
    <glyph glyph-name="ren1" unicode="&#58884;" d="M112.27 8.161c0 155.826 93.196 290.442 228.273 353.8 49.858-32.14 109.572-50.818 173.812-50.818 64.432 0 124.376 18.832 174.311 51.124 135.461-63.206 229.001-198.013 229.001-354.107 0-162.536-805.396-164.799-805.396 0zM705.77 432.261c-25.044-24.431-55.075-43.99-87.826-57.221-32.753-13.193-68.152-20.058-103.589-20.058s-70.874 6.866-103.589 20.058c-32.753 13.232-62.782 32.792-87.826 57.221-25.081 24.391-45.14 53.654-58.717 85.564-13.539 31.909-20.595 66.426-20.595 100.943 0 34.554 7.057 69.072 20.595 100.981 13.576 31.87 33.635 61.135 58.717 85.564 25.044 24.431 55.073 43.99 87.826 57.184 32.715 13.231 68.152 20.097 103.589 20.097s70.836-6.866 103.589-20.097c32.752-13.194 62.782-32.753 87.826-57.184 25.043-24.43 45.101-53.693 58.679-85.564 13.538-31.909 20.595-66.426 20.595-100.981 0-34.517-7.058-69.035-20.595-100.943-13.576-31.91-33.635-61.173-58.679-85.564z"  horiz-adv-x="1029" />

    
    <glyph glyph-name="shengtaisheying" unicode="&#58900;" d="M708.315267 492.269704c4.703289 2.257579 9.406577 4.327026 14.109866 6.584604 4.703289 2.633842 8.46592 6.584604 11.099761 11.287893 6.960867 13.169208 3.198236 29.348521-9.030314 38.002572-5.267683 3.386368-11.476024 5.267683-17.684365 5.079552-6.020209-0.752526-11.852287-2.633842-17.119971-5.455815-9.218446-4.327026-18.24876-9.030314-27.090942-14.109866-41.38894-25.209627-76.381407-59.825831-101.967298-101.02664-6.960867-11.099761-13.35734-22.575785-19.189417-34.239941-20.69447 39.507624-41.953335 79.015249-63.964726 117.770347-4.703289 7.901525-9.218446 15.80305-14.109865 23.704575-6.208341 9.970972-17.872497 15.050524-29.348521 13.35734-14.109866-2.633842-24.457101-15.238655-24.080838-29.724784 0.188132-3.950762 1.128789-7.901525 2.821973-11.476025 2.257579-4.327026 5.079552-8.46592 7.525262-12.792945 16.931839-29.160389 33.299283-58.697042 49.102333-88.421826 12.604814-23.516443 25.021495-47.221018 37.438178-70.737461l6.396472-12.604813c-7.525262-24.833364-13.545471-50.042991-17.872497-75.44075l-4.703288 4.138894c-9.218446 8.089656-19.189418 15.238655-29.724784 21.258865-6.960867 3.950762-13.545471 7.713393-21.635128 7.901525h-1.881316c-9.030314-0.564395-17.308102-5.079552-22.387654-12.604814-5.079552-7.525262-6.396473-16.931839-3.574499-25.397759 1.881315-5.643946 5.455815-10.535367 10.159104-14.109865 2.821973-1.881315 5.832078-3.386368 8.842182-5.079552 4.138894-2.257579 8.089656-4.703289 11.852288-7.33713 17.308102-12.416682 31.041705-28.972258 40.448282-48.161676l2.44571-5.643946c-2.069447-29.536653-2.633842-58.885174-2.257579-88.421826 0.940658-56.815727 5.832078-113.25519 14.674261-169.318391 0.940658-5.267683 1.693184-10.535367 2.821973-15.614918 2.069447-6.960867 6.396473-12.981077 12.416682-16.743708 7.33713-4.515157 16.179313-5.455815 24.268969-2.821973 8.089656 2.633842 14.674261 8.842183 17.872497 16.743708 1.505052 4.138894 2.257579 8.654051 1.881316 13.169208l-0.376264 2.633841c-6.960867 38.755098-11.099761 78.074591-13.733602 117.205953-1.881315 30.665442-2.821973 61.330884-2.257579 91.996325 0.564395 38.378835 3.574499 76.75767 9.594709 114.572111 2.069447 12.792945 4.327026 25.58589 7.148999 38.190704 3.762631 17.496234 8.46592 34.804336 14.109865 51.736175l0.376264 0.940658c18.060628 54.370017 46.468492 105.541797 90.867536 142.227448 14.486129 10.91163 29.536653 20.69447 45.715965 28.784126z m179.665626 103.47235c-9.406577 36.309388-23.892706 71.489987-42.705861 104.036744-19.189418 33.299283-43.270255 63.588462-71.113724 90.115011-34.616204 33.111152-74.876355 59.449568-119.087268 77.698328C611.23939 885.652765 564.394635 895.247474 516.985486 896h-10.159103c-47.409149-0.752526-94.253904-10.347235-138.088555-28.219732-41.200808-17.119971-79.015249-41.200808-112.1264-71.113724-56.439464-51.359912-97.45214-117.582216-118.146611-191.14165-23.704575-83.906669-21.070733-173.081021 7.713394-255.482638 31.041705-88.798089 91.996326-164.050707 172.328495-212.776777 4.327026-1.881315 9.030314-3.010105 13.733603-2.821974 8.654051 0.376263 16.555576 4.515157 21.823259 11.476025 5.267683 6.960867 7.148999 15.80305 5.267683 24.080837-1.505052 6.772736-5.455815 12.040419-10.535366 16.367445l-2.257579 1.505052c-13.921734 8.654051-27.279074 18.060628-39.883887 28.595995-30.853573 25.774022-57.19199 57.003858-77.698329 91.808194-16.179313 27.655337-28.407863 57.380121-36.685651 88.421826-23.704575 89.926879-12.040419 185.309572 32.170494 266.958663 21.070733 38.378835 49.478596 72.806908 83.342275 100.650376C405.42348 845.580746 541.81885 861.383796 655.262172 804.003674c38.755098-19.753812 73.371303-46.656623 101.779165-79.579643 32.92302-38.002572 57.380121-82.589748 71.678119-130.751424 18.625023-62.271541 19.941944-129.810766 4.138894-192.834834-14.862392-59.073305-44.587176-113.25519-86.352379-157.466103-16.555576-17.308102-34.992467-32.734889-54.74628-46.28036-6.960867-4.703289-14.297997-8.842183-21.258864-13.545471-3.762631-2.821973-6.772736-6.584604-9.030314-10.91163-3.574499-7.901525-3.574499-16.931839 0.188131-24.645232 3.574499-7.901525 10.535367-13.545471 18.813155-15.80305 6.396473-1.505052 13.35734-0.940658 19.377549 1.881315l2.44571 1.316921c75.252618 44.587176 134.137792 112.690796 167.437075 193.963623 34.616204 84.471064 41.012677 177.972442 18.24876 266.394268z"  horiz-adv-x="1024" />

    
    <glyph glyph-name="diannao" unicode="&#58897;" d="M1054.488852 896H139.397867C95.437197 896 59.559618 860.264229 59.559618 816.16175v-660.82814c0-44.102479 35.877579-79.83825 79.838249-79.838249h377.636339v-145.353829h-123.515303c-16.024373 0-29.070766-13.046392-29.070766-29.070766s13.046392-29.070766 29.070766-29.070766h406.707104c16.024373 0 29.070766 13.046392 29.070766 29.070766s-13.046392 29.070766-29.070766 29.070766h-123.515302V75.495361h377.636338c44.102479 0 79.83825 35.877579 79.83825 79.838249v660.82814c0.141809 44.102479-35.735771 79.83825-79.696441 79.83825zM139.397867 838.000277h915.090985c12.053732 0 21.838527-9.784794 21.838526-21.838527v-530.222406H117.701149V816.16175c-0.141809 12.053732 9.642986 21.838527 21.696718 21.838527z m479.313115-907.858745h-43.677053V75.495361h43.677053v-145.353829zM1054.488852 133.495084H139.397867c-12.053732 0-21.838527 9.784794-21.838526 21.838526v72.606011h958.626229v-72.606011c0.141809-12.053732-9.642986-21.838527-21.696718-21.838526z"  horiz-adv-x="1375" />

    
    <glyph glyph-name="jiandu" unicode="&#58949;" d="M512 346.963772c38.921487 0 70.666825 31.745338 70.666825 70.666825s-31.745338 70.666825-70.666825 70.666825-70.666825-31.745338-70.666825-70.666825c0-39.043117 31.623708-70.666825 70.666825-70.666825z m0 111.047868c22.258225 0 40.381043-18.122817 40.381043-40.381043 0-22.258225-18.122817-40.381043-40.381043-40.381042-22.258225 0-40.381043 18.122817-40.381043 40.381042 0 22.258225 18.122817 40.381043 40.381043 40.381043zM685.443877 195.899751c-30.164153 25.298967-65.55838 43.786673-103.628459 53.881933 0.243259 0.12163 0.608148 0.243259 0.851407 0.364889 21.528448 9.122224 41.23245 22.379855 57.774082 38.921487 16.541632 16.541632 29.799264 36.124005 38.921488 57.774083 9.487112 22.379855 14.352298 46.462525 14.230668 70.788454 0 24.569189-4.743556 48.28697-14.230668 70.788455-9.122224 21.650077-22.379855 41.23245-38.921488 57.774083-16.541632 16.541632-36.124005 29.799264-57.774082 38.921487-22.379855 9.487112-46.462525 14.352298-70.666825 14.230668-24.325929 0-48.28697-4.865186-70.666825-14.230668-21.528448-9.122224-41.23245-22.379855-57.774082-38.921487-16.541632-16.541632-29.799264-36.124005-38.921488-57.774083-9.487112-22.379855-14.352298-46.462525-14.230668-70.788455 0-24.325929 4.865186-48.4086 14.230668-70.788454 9.122224-21.528448 22.379855-41.23245 38.921488-57.774083 16.541632-16.541632 36.124005-29.799264 57.774082-38.921487 0.243259-0.12163 0.608148-0.243259 0.973037-0.364889-36.732153-9.852001-70.910084-27.245041-100.344459-51.206081-6.446371-5.230075-7.419408-14.838817-2.189333-21.285188 5.230075-6.446371 14.838817-7.419408 21.285188-2.189334 42.570377 34.54282 96.209051 53.638674 151.064022 53.638674 56.314527 0 110.804609-19.825632 153.983133-56.071267 3.040741-2.554223 7.05452-3.892149 11.068298-3.52726 4.013778 0.364889 7.662668 2.310963 10.21689 5.351705 2.554223 3.040741 3.892149 7.05452 3.52726 11.068298-0.486519 4.013778-2.432593 7.784297-5.473334 10.33852z m-280.477967 114.696757C391.100131 324.340658 380.153462 340.76066 372.490795 358.761848c-7.905927 18.609336-11.919705 38.678228-11.919706 58.990379 0 20.190521 4.013778 40.259413 11.919706 58.990379 7.541038 18.001188 18.609336 34.299561 32.475115 48.16534 13.74415 13.86578 30.164153 24.812448 48.165341 32.475116 18.609336 7.905927 38.678228 11.919705 58.868749 11.919706 20.433781 0 40.259413-4.013778 58.868749-11.919706 18.001188-7.541038 34.299561-18.609336 48.165341-32.475116 13.86578-13.74415 24.812448-30.164153 32.475115-48.16534 7.905927-18.609336 11.919705-38.678228 11.919706-58.990379 0-20.433781-4.013778-40.259413-11.919706-58.990379-7.541038-18.001188-18.609336-34.299561-32.475115-48.16534-13.74415-13.86578-30.164153-24.812448-48.165341-32.475116-18.609336-7.905927-38.678228-11.919705-58.868749-11.919705-20.190521 0-40.259413 4.013778-58.868749 11.919705-18.122817 7.541038-34.42119 18.609336-48.165341 32.475116zM758.300036 783.492576h-492.600072c-84.167716 0-152.888467-68.84238-152.888466-152.888466v-492.600072c0-84.167716 68.84238-152.888467 152.888466-152.888466h492.600072c84.167716 0 152.888467 68.84238 152.888466 152.888466v492.600072c0 84.046086-68.84238 152.888467-152.888466 152.888466z m106.425941-616.90557c0-74.315714-60.814824-135.130538-135.130538-135.130538H294.404561c-74.315714 0-135.130538 60.814824-135.130538 135.130538V601.899513c0 74.315714 60.814824 135.130538 135.130538 135.130538h435.190878c74.315714 0 135.130538-60.814824 135.130538-135.130538v-435.312507z"  horiz-adv-x="1024" />

    
    <glyph glyph-name="zichan" unicode="&#58881;" d="M510.976 831.54432c-245.5552 0-444.62592-199.07072-444.62592-444.63104 0-245.5552 199.07072-444.62592 444.62592-444.62592 245.56032 0 444.63104 199.07072 444.63104 444.62592 0 245.56032-199.07072 444.63104-444.63104 444.63104z m0-843.91936c-220.52864 0-399.28832 178.75968-399.28832 399.28832S290.44736 786.20672 510.976 786.20672s399.28832-178.75968 399.28832-399.28832-178.75968-399.29344-399.28832-399.29344z m110.40256 401.34656c-18.1504 14.06976-39.6288 22.86592-85.19168 34.33472V582.8608c20.3776-3.9936 32.5376-9.58464 45.00992-22.17472 15.2832-14.30016 22.06208-29.2352 26.5984-57.83552l45.85472 8.94464c-7.35232 36.35712-15.2832 53.64224-35.10784 73.90208-21.19168 21.76512-42.17344 31.49312-82.3552 37.05344V653.6704h-50.432v-30.7712c-31.28832-4.57728-48.2816-10.68032-66.51904-23.4752-30.57152-20.8384-47.55968-54.82496-47.55968-94.7712 0-36.9664 15.86176-69.76 43.04384-87.6544 19.45088-12.90752 35.8656-19.56352 71.03488-28.19072v-175.85664c-24.54528 3.5072-40.90368 11.46368-54.62016 26.42944-15.2832 16.67584-21.50912 33.98656-24.34048 68.55168l-47.01184-7.76192c6.80448-44.69248 16.44032-67.968 36.81792-89.39008 21.39136-21.44768 44.52352-31.67232 89.15968-37.34016v-53.28896h50.432V172.3392c36.73088 4.04992 55.57248 9.64096 76.12928 23.5008 32.85504 22.06208 49.84832 56.6528 49.84832 103.14752 0 39.93088-12.47744 68.56192-40.79104 89.984z m-135.61856 44.52352c-13.19936 3.328-21.33504 6.10816-30.27456 10.36288-27.18208 13.69088-40.18176 33.95584-40.18176 62.58688 0 23.21408 10.1888 45.27104 26.5728 58.41408 11.92448 9.5232 23.99744 14.32576 43.88352 17.77664v-149.14048z m101.66784-201.88672c-14.18752-11.20256-27.6224-16.09216-51.24096-19.58912v165.86752c32.3584-8.57088 43.59168-12.76416 54.0416-20.46464 17.57696-13.7216 26.63424-32.82944 26.63424-59.04896 0-28.61056-10.76224-52.46464-29.43488-66.7648z"  horiz-adv-x="1024" />

    
    <glyph glyph-name="dianzan" unicode="&#59189;" d="M123.906829 430.674033a32.247514 32.247514 0 0 1 0 64.495028H43.005171A43.562431 43.562431 0 0 1 0.008486 450.758011v-534.629834a42.996685 42.996685 0 0 1 42.713812-43.845304 38.753591 38.753591 0 0 1 6.788951 0h74.39558a30.833149 30.833149 0 0 1 0 61.666298H63.089149l1.697238 496.159116z m881.432044 46.108287a110.603315 110.603315 0 0 1-97.308287 56.574586h-252.322652a521.051934 521.051934 0 0 1 28.287293 159.540332 487.390055 487.390055 0 0 1-10.749172 101.834254A125.312707 125.312707 0 0 1 550.762077 896c-68.455249 0-113.149171-59.403315-113.149171-130.970166v-11.880663a268.163536 268.163536 0 0 0-234.78453-254.585635v-624.583426h622.320442a90.236464 90.236464 0 0 1 56.574585 19.801105 129.555801 129.555801 0 0 1 44.976796 52.048619 47.522652 47.522652 0 0 1 6.223204 13.860774l92.216575 424.309392a47.522652 47.522652 0 0 1 0 14.992265 135.779006 135.779006 0 0 1-18.669613 79.20442z m-39.036464-65.343646l-99.288398-452.596685a40.733702 40.733702 0 0 0-15.275138-18.952486 38.470718 38.470718 0 0 0-16.123757-6.223205h-5.374586L258.837215-65.767956V436.048619c106.925967 49.785635 185.281768 98.156906 226.298343 214.134806a345.953591 345.953591 0 0 1 10.466298 41.016575 429.966851 429.966851 0 0 1 6.223205 71.849724 54.877348 54.877348 0 0 0 52.614364 65.060773 76.658564 76.658564 0 0 0 60.251934-64.495027A415.823204 415.823204 0 0 0 622.328928 693.18011a337.467403 337.467403 0 0 0-5.657458-70.152486 386.40442 386.40442 0 0 0-36.490608-107.208839 45.259669 45.259669 0 0 1-4.525967-19.518233c0-24.609945 22.912707-26.872928 46.39116-26.872928H925.285834a40.733702 40.733702 0 0 0 37.339227-20.366851 44.693923 44.693923 0 0 0 4.243094-35.641988zM213.294674-128z"  horiz-adv-x="1025" />

    
    <glyph glyph-name="iconfont-xinxi" unicode="&#58920;" d="M934.547937 127.56479c12.598737 0 22.295498 14.134874 22.295498 30.499126V611.616718c0 16.364252-9.696761 30.499126-22.295498 30.499127H533.19285c-12.598737 0-22.293778-14.134874-22.293777-30.499127v-453.552802c0-16.364252 9.696761-30.499126 22.293777-30.499126h401.355087z m-355.042172 445.944362h171.517592v-34.302486h-171.517592v34.302486z m0-102.910899h308.730977v-34.302486H579.505765v34.302486z m0-102.909179h308.730977v-34.302486H579.505765v34.302486z m0-102.910899h308.730977v-34.302486H579.505765v34.302486z"  horiz-adv-x="1448" />

    
    <glyph glyph-name="dunpai" unicode="&#58883;" d="M845.44 680.491008c-119.000064 5.20704-229.472256 47.801344-325.776384 116.114432L510.879744 802.816l-8.7552-6.21056c-96.275456-68.314112-206.761984-110.90944-325.796864-116.114432H158.72v-279.627776c0-206.271488 143.09376-388.765696 348.079104-436.1472l4.847616-0.760832 3.388416 0.775168c204.9024 47.36 348.002304 229.861376 348.002304 436.130816V680.48896h-17.598464v0.002048h0.001024z m-334.56128 69.897216c92.153856-63.090688 193.975296-95.110144 305.609728-104.02816v-268.75904C790.662144 73.09312 513.359872 10.841088 508.83584 9.843712v0.953344s-277.812224 60.75392-303.850496 367.768576v267.776c1.676288 0.13312 3.354624 0.263168 5.024768 0.406528 109.822976 9.437184 210.044928 41.45152 300.868608 103.640064zM306.331648 396.573696l142.710784-147.817472h0.674816c5.003264-9.913344 15.269888-16.715776 27.131904-16.715776 11.860992 0 22.12864 6.803456 27.13088 16.715776h0.354304l214.603776 227.841024c7.954432 4.538368 13.32224 13.092864 13.32224 22.90688 0 14.559232-11.8016 26.360832-26.361856 26.360832-10.785792 0-20.054016-6.48192-24.13568-15.760384L477.246464 292.7872c-0.13312 0.002048-0.264192 0.009216-0.397312 0.009216-0.659456 0-1.313792-0.0256-1.963008-0.068608L342.197248 432.006144c-4.407296 8.400896-13.206528 14.133248-23.351296 14.133248-14.558208 0-26.360832-11.802624-26.360832-26.360832-0.001024-10.03008 5.602304-18.74944 13.846528-23.204864z"  horiz-adv-x="1024" />

    
    <glyph glyph-name="gongkai" unicode="&#58940;" d="M590.848 502.153846c152.024615 0 275.692308-123.667692 275.692308-275.692308s-123.667692-275.692308-275.692308-275.692307-275.692308 123.667692-275.692308 275.692307S438.823385 502.153846 590.848 502.153846m0 78.769231a354.461538 354.461538 0 1 1 0-708.923077 354.461538 354.461538 0 0 1 0 708.923077zM590.848 513.969231a39.384615 39.384615 0 0 0-39.384615 39.384615v55.138462c0 115.081846-88.379077 208.738462-196.923077 208.738461s-196.923077-93.656615-196.923077-208.738461v-55.138462a39.384615 39.384615 0 0 0-78.769231 0v55.138462c0 158.562462 123.667692 287.507692 275.692308 287.507692s275.692308-128.945231 275.692307-287.507692v-55.138462a39.384615 39.384615 0 0 0-39.384615-39.384615zM590.848 344.615385a39.384615 39.384615 0 0 1-39.384615-39.384616v-157.538461a39.384615 39.384615 0 0 1 78.76923 0v157.538461a39.384615 39.384615 0 0 1-39.384615 39.384616z"  horiz-adv-x="1024" />

    
    <glyph glyph-name="wenti" unicode="&#58996;" d="M512.298 831.714c-109.038 0-208.68-42.974-280.119-115.842C96.818 583.218 78.02 370.223 185.18 215.143c43.24-63.523 103.398-112.104 176.718-141.997L487.86-52.037v-1.869c13.158-13.077 35.719-13.077 48.877 0l125.961 127.052c71.439 29.893 133.48 78.474 176.72 141.997 107.158 155.08 86.479 368.075-46.999 500.729C720.978 788.74 621.338 831.714 512.298 831.714m1.881-674.491c-19.729 0-35.722 15.895-35.722 35.5 0 19.607 15.993 35.499 35.722 35.499 19.727 0 35.72-15.892 35.72-35.499 0.001-19.606-15.993-35.5-35.72-35.5z m156.04 353.126c-5.642-31.762-18.8-61.658-43.243-85.946-9.398-11.211-22.558-20.552-35.717-28.027-11.28-5.606-22.561-11.21-30.079-20.551-7.523-9.342-11.28-24.292-11.28-48.579 0-20.552-16.92-37.369-37.602-37.369-20.68 0-35.717 14.948-35.717 35.502 0 42.971 11.279 70.998 26.317 91.551 15.042 20.552 33.839 31.761 52.641 41.103 7.52 3.738 15.038 9.341 20.68 14.948 13.161 11.21 20.68 28.027 22.559 42.975 1.883 16.813-1.88 33.628-9.398 48.573-5.639 7.475-9.401 14.95-16.919 22.421-16.922 16.817-37.602 24.293-58.283 24.293-11.28 0-22.559-3.738-33.839-7.476-9.401-3.735-20.68-9.341-28.199-18.682-15.039-14.948-24.44-33.633-24.44-57.92 0-18.686-15.039-33.631-35.719-33.631-20.681 0-35.722 14.945-35.722 35.497 0 44.843 18.802 82.212 45.12 110.235 15.041 13.08 33.839 26.158 52.641 33.634 18.8 9.339 39.481 13.076 62.042 13.076 37.597 0 77.078-13.076 109.036-44.843 11.28-11.21 20.683-24.286 28.204-37.366 15.036-29.892 20.677-63.525 16.917-93.418z"  horiz-adv-x="1024" />

    
    <glyph glyph-name="F" unicode="&#59430;" d="M497.664 896v-0.4096C343.4496 888.6272 219.136 768 206.0288 615.424h-1.2288v-743.424h204.8V588.8c0 56.5248 45.8752 102.4 102.4 102.4h307.2V896H497.664zM512 486.4h307.2v-204.8H512z"  horiz-adv-x="1024" />

    
    <glyph glyph-name="wendang" unicode="&#58886;" d="M779.055201 383.423207l0-67.292527-535.263988 0 0 67.292527 535.263988 0ZM777.901615 183.08374l0-67.292527-535.263988 0 0 67.292527 535.263988 0ZM680.231318 896H159.194893A94.594067 94.594067 0 0 1 64.985355 801.790462v-835.580924a94.594067 94.594067 0 0 1 94.209538-94.209538H864.805107a94.594067 94.594067 0 0 1 94.209538 94.209538V597.605708z m-30.762298-64.216297l244.56027-261.095006h-200.339466a44.989861 44.989861 0 0 0-44.989862 44.989861z m244.944799-387.989486v-463.357116A44.989861 44.989861 0 0 0 849.039429-65.321817H173.422456a44.989861 44.989861 0 0 0-44.989861 44.989861v807.510326a44.989861 44.989861 0 0 0 44.989861 45.37439h409.907623v-230.717236a94.594067 94.594067 0 0 1 94.209538-94.209538h216.105145z"  horiz-adv-x="1024" />

    
    <glyph glyph-name="chenggong" unicode="&#58887;" d="M651.093333 275.626667l44.202667 49.152 83.456-100.693334 223.402667 179.2 17.237333-17.237333L781.141333 155.306667l-130.048 120.32z m0 0M866.645333 649.045333h-13.482666v40.618667H175.957333v-40.618667h-13.482666c-29.866667 0-54.101333 24.405333-54.101334 54.101334s24.405333 54.101333 54.101334 54.101333h704.170666c29.866667 0 54.101333-24.405333 54.101334-54.101333s-24.405333-54.101333-54.101334-54.101334zM148.821333 716.8h731.306667v-36.522667c8.192 4.096 13.482667 13.482667 13.482667 23.04 0 14.848-12.117333 27.136-27.136 27.136H162.304c-14.848 0-27.136-12.117333-27.136-27.136 0-9.557333 5.461333-18.944 13.482667-23.04V716.8zM487.424 184.490667h-203.093333c-8.192 0-13.482667 5.461333-13.482667 13.482666s5.461333 13.482667 13.482667 13.482667h203.093333c8.192 0 13.482667-5.461333 13.482667-13.482667s-5.290667-13.482667-13.482667-13.482666zM555.178667 279.381333h-135.509334c-8.192 0-13.482667 5.461333-13.482666 13.482667 0 8.192 5.461333 13.482667 13.482666 13.482667h135.509334c8.192 0 13.482667-5.461333 13.482666-13.482667 0-8.192-5.461333-13.482667-13.482666-13.482667zM311.296 279.381333h-27.136c-8.192 0-13.482667 5.461333-13.482667 13.482667 0 8.192 5.461333 13.482667 13.482667 13.482667h27.136c8.192 0 13.482667-5.461333 13.482667-13.482667 0.170667-8.192-5.290667-13.482667-13.482667-13.482667zM555.178667 374.101333h-203.093334c-8.192 0-13.482667 5.461333-13.482666 13.482667s5.461333 13.482667 13.482666 13.482667h203.093334c8.192 0 13.482667-5.461333 13.482666-13.482667s-5.461333-13.482667-13.482666-13.482667zM487.424 468.992h-203.093333c-8.192 0-13.482667 5.461333-13.482667 13.482667s5.461333 13.482667 13.482667 13.482666h203.093333c8.192 0 13.482667-5.461333 13.482667-13.482666s-5.290667-13.482667-13.482667-13.482667zM798.890667 608.426667c0 8.192 6.826667 13.482667 13.482666 13.482666 6.826667 0 13.482667-5.461333 13.482667-13.482666 0-6.826667-6.826667-13.482667-13.482667-13.482667-6.656 0-13.482667 6.656-13.482666 13.482667z m-54.101334 0c0 8.192 6.826667 13.482667 13.482667 13.482666 6.826667 0 13.482667-5.461333 13.482667-13.482666 0-6.826667-6.826667-13.482667-13.482667-13.482667-6.826667 0-13.482667 6.656-13.482667 13.482667z m-54.272 0c0 8.192 6.826667 13.482667 13.482667 13.482666 6.826667 0 13.482667-5.461333 13.482667-13.482666 0-6.826667-6.826667-13.482667-13.482667-13.482667-6.656 0-13.482667 6.656-13.482667 13.482667z m-54.101333 0c0 8.192 6.826667 13.482667 13.482667 13.482666 6.826667 0 13.482667-5.461333 13.482666-13.482666 0-6.826667-6.826667-13.482667-13.482666-13.482667-6.656 0-13.482667 6.656-13.482667 13.482667z m-54.272 0c0 8.192 6.826667 13.482667 13.482667 13.482666 6.826667 0 13.482667-5.461333 13.482666-13.482666 0-6.826667-6.826667-13.482667-13.482666-13.482667-6.656 0-13.482667 6.656-13.482667 13.482667z m-54.101333 0c0 8.192 6.826667 13.482667 13.482666 13.482666 6.826667 0 13.482667-5.461333 13.482667-13.482666 0-6.826667-6.826667-13.482667-13.482667-13.482667-6.656 0-13.482667 6.656-13.482666 13.482667z m-54.101334 0c0 8.192 5.461333 13.482667 13.482667 13.482666 6.826667 0 13.482667-5.461333 13.482667-13.482666 0-6.826667-6.826667-13.482667-13.482667-13.482667-8.192 0-13.482667 6.656-13.482667 13.482667z m-54.272 0c0 8.192 5.461333 13.482667 13.482667 13.482666 6.826667 0 13.482667-5.461333 13.482667-13.482666 0-6.826667-6.826667-13.482667-13.482667-13.482667-8.021333 0-13.482667 6.656-13.482667 13.482667z m-54.101333 0c0 8.192 5.461333 13.482667 13.482667 13.482666 6.826667 0 13.482667-5.461333 13.482666-13.482666 0-6.826667-6.826667-13.482667-13.482666-13.482667-8.192 0-13.482667 6.656-13.482667 13.482667z m-54.272 0c0 8.192 5.461333 13.482667 13.482667 13.482666 6.826667 0 13.482667-5.461333 13.482666-13.482666 0-6.826667-6.826667-13.482667-13.482666-13.482667-8.021333 0-13.482667 6.656-13.482667 13.482667z m-54.101333 0c0 8.192 5.461333 13.482667 13.482666 13.482666 6.826667 0 13.482667-5.461333 13.482667-13.482666 0-6.826667-6.826667-13.482667-13.482667-13.482667-8.021333 0-13.482667 6.656-13.482666 13.482667z m-54.272 0c0 8.192 5.461333 13.482667 13.482666 13.482666 6.826667 0 13.482667-5.461333 13.482667-13.482666 0-6.826667-6.826667-13.482667-13.482667-13.482667-8.021333 0-13.482667 6.656-13.482666 13.482667zM853.845333 185.856l3.072 3.242667 0.170667 0.170666 18.090667 21.333334c1.706667 2.048 4.949333 0.853333 4.949333-1.877334v-208.213333c0-2.56-3.072-3.754667-4.778667-2.048L841.386667 32.256c-1.024 1.024-2.901333 1.024-3.925334 0l-56.832-26.453333-69.12 30.208-65.706666-31.914667c-1.024-1.024-2.901333-1.024-3.925334 0l-70.997333 32.938667c-1.024 1.024-2.901333 1.024-3.925333 0l-67.754667-34.474667c-1.024-1.024-2.901333-1.024-3.925333 0l-59.904 34.474667c-1.024 1.024-2.901333 1.024-3.925334 0L366.933333 2.56c-1.024-1.024-2.901333-1.024-3.925333 0l-58.197333 34.474667c-1.024 1.024-2.901333 1.024-3.925334 0L244.053333 2.56c-1.024-1.024-2.901333-1.024-3.925333 0l-48.810667 29.696c-1.024 1.024-2.901333 1.024-3.925333 0L153.429333-1.706667c-1.706667-1.706667-4.778667-0.512-4.778666 2.048V714.069333c0 1.536 1.194667 2.730667 2.730666 2.730667H877.226667c1.536 0 2.730667-1.194667 2.730666-2.730667v-370.346666c0-0.853333-0.341333-1.536-1.024-2.048l-21.504-18.773334c-1.194667-1.024-2.730667-0.853333-3.754666 0.170667-0.512 0.512-0.853333 1.194667-0.853334 1.877333V686.933333c0 1.536-1.194667 2.730667-2.730666 2.730667H178.688c-1.536 0-2.730667-1.194667-2.730667-2.730667v-621.568c0-2.56 3.072-8.533333 4.778667-6.656l6.826667 6.826667c1.024 1.024 2.901333 1.024 3.925333 0l48.810667-29.696c1.024-1.024 2.901333-1.024 3.925333 0l56.661333 31.232c1.024 1.024 2.901333 1.024 3.925334 0l58.197333-36.010667c1.024-1.024 2.901333-1.024 3.925333 0l64.682667 36.010667c1.024 1.024 2.901333 1.024 3.925333 0l59.904-36.010667c1.024-1.024 2.901333-1.024 3.925334 0l67.754666 36.010667c1.024 1.024 2.901333 1.024 3.925334 0l70.997333-29.696c1.024-1.024 2.901333-1.024 3.925333 0l64.170667 28.842667 70.656-30.208 56.832 29.354666c1.024 1.024 2.901333 1.024 3.925333 0l6.826667-2.048c1.706667-1.706667 4.778667-0.512 4.778667 2.048v118.442667c-0.170667 0.682667 0.170667 1.365333 0.682666 2.048zM68.608 659.456l13.312-24.234667 24.064-13.312-24.064-13.141333-13.312-24.234667-13.312 24.234667-24.234667 13.141333 24.234667 13.312zM37.546667 521.557333l13.141333-24.234666 24.234667-13.312-24.234667-13.141334-13.141333-24.234666-13.312 24.234666L0 484.010667l24.234667 13.312zM977.408 754.176l13.312-24.234667 24.234667-13.141333-24.234667-13.312-13.312-24.234667-13.312 24.234667-24.064 13.312 24.064 13.141333zM986.453333 608.768l13.312-24.234667 24.234667-13.312-24.234667-13.141333-13.312-24.234667-13.141333 24.234667-24.234667 13.141333 24.234667 13.312z"  horiz-adv-x="1024" />

    
    <glyph glyph-name="xiala-sanjiaoxing" unicode="&#58885;" d="M98 610l414.1-448.2L928 610z"  horiz-adv-x="1024" />

    
    <glyph glyph-name="lishi" unicode="&#58901;" d="M501.40917969 417.62958984H350.62929687v-65.30976562h216.05976563v270.14941406H501.40917969z m77.82011719-160.13935546h382.86035156v-65.31064454h-382.86035157z m-1e-8-126.72070313h382.86035157v-65.36953125h-382.86035156z m0-126.77958984h382.86035157v-65.36953125h-382.86035156zM113.71923828 507.77988281c8.00947266-4.68017578 17.81982422-5.82011719 26.63964844-2.90917968l187.80029297 60.89941406c8.31005859 2.67011719 15.06005859 8.45947266 19.01953125 16.22988281s4.68017578 16.62011719 1.98017578 24.93017578a32.58017578 32.58017578 0 0 1-41.13017578 20.96982422L198.37988281 592.35a384.14970703 384.14970703 0 0 0 49.2600586 60.38964844A377.46035156 377.46035156 0 0 0 516.31894531 764.03994141c101.48994141 0 196.88994141-39.54023438 268.67988281-111.30029297a377.49023438 377.49023438 0 0 0 111.26953126-268.67988281 380.99970703 380.99970703 0 0 0-7.49882813-75.68964844l-1.05029297-5.34023438h66.57011719l0.63017578 3.65976563a451.74902344 451.74902344 0 0 1 6.68935547 77.37011718c0 60.11982422-11.81953125 118.44052734-35.03935547 173.34052735a443.39941406 443.39941406 0 0 1-95.37011719 141.51005859A443.75976563 443.75976563 0 0 1 516.31894531 829.37958984c-60.11982422 0-118.43964844-11.78964844-173.33964843-35.00947265A443.30976562 443.30976562 0 0 1 201.43847656 698.91035156a445.35234375 445.35234375 0 0 1-56.34052734-68.82011718L126.79912109 723.24023438A32.69970703 32.69970703 0 0 1 88.45947266 749.00976563 32.31035156 32.31035156 0 0 1 67.66894531 735.18017578a32.27958984 32.27958984 0 0 1-4.95-24.48017578l35.55-181.05029297a32.61621094 32.61621094 0 0 1 15.45029297-21.86982422zM247.6390625 115.37988281000003A377.15976562 377.15976562 0 0 0 143.50888672 310.04970703000004l-0.68994141 3.6H76.51953125l0.87011719-5.21982422a444.20976563 444.20976563 0 0 1 124.04882812-239.27958984 443.46005859 443.46005859 0 0 1 141.54082032-95.4 442.67958984 442.67958984 0 0 1 169.70976562-35.01035156l4.47011719-0.02988282V4.048828120000053l-4.41035156 0.06064454a377.57988281 377.57988281 0 0 0-265.10976563 111.26953125z"  horiz-adv-x="1024" />

    
    <glyph glyph-name="shangchuan" unicode="&#58916;" d="M859.3-32.2H166.1c-67.1 0-121.7 51.9-121.7 115.8V344c0 16 13.1 28.9 29.3 28.9S103 360 103 344v-260.5c0-31.9 28.3-57.9 63.1-57.9h693.2c34.8 0 63.2 26 63.2 57.9V344c0 7.7 3.1 15 8.6 20.5 5.5 5.4 12.9 8.5 20.7 8.5 7.8 0 15.2-3 20.7-8.5 5.5-5.4 8.6-12.8 8.6-20.5v-260.5c-0.1-63.8-54.7-115.7-121.8-115.7zM708.5 568.9c-7.8 0-15.2 3-20.7 8.5l-175 173.1-175.1-173.1c-5.5-5.4-12.9-8.5-20.7-8.5-7.8 0-15.2 3-20.7 8.5-5.5 5.4-8.6 12.8-8.6 20.5 0 7.7 3.1 15 8.6 20.5l216.4 214 216.4-214c5.5-5.4 8.6-12.8 8.6-20.5 0-7.7-3.1-15-8.6-20.5-5.4-5.5-12.9-8.5-20.6-8.5zM512.7 192.6c-7.8 0-15.2 3-20.7 8.5-5.5 5.4-8.6 12.8-8.6 20.5V754.4c0 16 13.1 28.9 29.3 28.9 16.2 0 29.3-12.9 29.3-28.9v-532.8c0-7.7-3.1-15-8.6-20.5-5.5-5.4-12.9-8.5-20.7-8.5z"  horiz-adv-x="1024" />

    
    <glyph glyph-name="tubiao-qiantai-" unicode="&#58947;" d="M573.359998 159.569508l-426.097538 0.410346c-20.704554 0-37.548174 16.844643-37.548174 37.548174l-0.008187 401.860531c0 20.702508 16.84362 37.545104 37.526685 37.545104l717.715245-0.76748c20.703531 0 37.548174-16.842597 37.548175-37.547151l0.008186-122.824373c0-11.302417 9.163707-20.465101 20.468171-20.4651 11.302417 0 20.465101 9.16473 20.464077 20.467147l-0.008186 122.82335c0 43.272549-35.205826 78.477352-78.458933 78.477352l-717.715245 0.76748c-43.274596 0-78.480422-35.204803-78.480423-78.478376l0.008187-401.860531c0-43.274596 35.205826-78.480422 78.460979-78.480422l426.077072-0.410346h0.020466c11.294231 0 20.454868 9.149381 20.466124 20.445658 0.011256 11.305487-9.144264 20.47738-20.446681 20.488637zM360.953354 476.50381c0 42.655496-34.70236 77.358879-77.357856 77.358879-42.655496 0-77.358879-34.703383-77.358878-77.358879s34.703383-77.357855 77.358878-77.357855c42.655496 0.001023 77.357855 34.703383 77.357856 77.357855z m-124.016525 0c0 25.727964 20.931728 46.659693 46.659693 46.659693 25.727964 0 46.658669-20.931728 46.658669-46.659693 0-25.727964-20.930705-46.658669-46.658669-46.658669-25.728988 0.001023-46.659693 20.931728-46.659693 46.658669zM151.611511 258.986775c0-8.477069 6.872524-15.349593 15.349593-15.349593s15.349593 6.872524 15.349593 15.349593c0 55.847959 45.436842 101.284801 101.285825 101.284801 55.847959 0 101.284801-45.435819 101.2848-101.284801 0-8.477069 6.872524-15.349593 15.349593-15.349593s15.349593 6.872524 15.349593 15.349593c0 72.77549-59.207473 131.983987-131.983986 131.983987-72.776514-0.001023-131.98501-59.208497-131.985011-131.983987zM802.32169 536.201447h-332.574515c-8.477069 0-15.349593-6.872524-15.349593-15.349593s6.872524-15.349593 15.349593-15.349593h332.574515c8.477069 0 15.349593 6.872524 15.349593 15.349593s-6.872524 15.349593-15.349593 15.349593zM817.671283 434.894134c0 8.477069-6.872524 15.349593-15.349593 15.349593h-332.574515c-8.477069 0-15.349593-6.872524-15.349593-15.349593s6.872524-15.349593 15.349593-15.349593h332.574515c8.477069 0 15.349593 6.872524 15.349593 15.349593zM469.747175 364.286006c-8.477069 0-15.349593-6.872524-15.349593-15.349593s6.872524-15.349593 15.349593-15.349593h103.353926c8.477069 0 15.349593 6.872524 15.349593 15.349593s-6.872524 15.349593-15.349593 15.349593h-103.353926zM800.263821 388.564969c-84.711334 0-153.629983-68.918649-153.629983-153.629983S715.552487 81.305003 800.263821 81.305003s153.629983 68.918649 153.629983 153.629983-68.918649 153.629983-153.629983 153.629983z m0-276.56078c-67.783803 0-122.930797 55.146994-122.930797 122.930797s55.146994 122.930797 122.930797 122.930797 122.930797-55.146994 122.930797-122.930797S868.047624 112.004189 800.263821 112.004189zM855.934748 283.041634l-65.479317-65.48341-32.821523 32.823569c-5.995551 5.994528-15.712867 5.994528-21.708417 0-5.994528-5.993504-5.994528-15.712867-0.001024-21.707394l42.422182-42.423205c0.364297-0.459464 0.75213-0.907673 1.176802-1.333368a15.298428 15.298428 0 0 1 10.853186-4.496408c0.025583 0 0.052189 0.004093 0.077771 0.004094s0.053212-0.004093 0.078794-0.004094a15.298428 15.298428 0 0 1 10.853186 4.496408c0.425695 0.425695 0.812505 0.873903 1.176802 1.334391l75.078953 75.082022c5.993504 5.994528 5.993504 15.712867-0.001024 21.707395-5.992481 5.995551-15.711843 5.993504-21.706371 0z"  horiz-adv-x="1024" />

    
    <glyph glyph-name="fujian" unicode="&#59044;" d="M204.098 477.84l140.347 144.202L548.52 831.777a210.64 210.64 0 0 0 302.86 0c40.357-41.38 62.463-96.375 62.463-154.983a221.061 221.061 0 0 0-62.945-155.285L440.94 100.65a139.142 139.142 0 0 0-197.208 3.554 147.153 147.153 0 0 0-10.24 193.233 30.78 30.78 0 0 0 4.94 6.686l3.854 3.915 2.59 2.65 355.987 365.444a29.756 29.756 0 0 0 42.766 0 31.322 31.322 0 0 0 0-43.49L287.523 267.02l-3.313-3.614a85.051 85.051 0 0 1 2.35-115.711 79.51 79.51 0 0 1 111.976-3.193L808.13 565a159.08 159.08 0 0 1 45.357 111.856c0 42.164-15.902 81.678-44.875 111.434a151.068 151.068 0 0 1-217.326 0l-64.873-66.68-139.142-143.057-203.955-209.496c-84.208-88.665-83.304-232.084 1.928-319.545a218.05 218.05 0 0 1 310.389-2.53c1.566 1.506 1.566 1.506 2.65 2.41l355.927 365.443c1.686 1.807 1.686 1.807 3.252 3.313a29.756 29.756 0 0 0 42.767-1.204 31.322 31.322 0 0 0-1.205-43.49L541.111 5.902l-3.012-3.012-2.289-2.048a277.38 277.38 0 0 0-194.076-79.028 277.08 277.08 0 0 0-199.195 84.208c-108.423 111.253-109.507 293.343-2.41 405.981l64.03 65.837z"  horiz-adv-x="1024" />

    
    <glyph glyph-name="yincang" unicode="&#58898;" d="M212.48 176l44.8 44.8-33.92 28.8a913.28 913.28 0 0 0-111.36 118.4 912 912 0 0 0 111.36 119.04A465.28 465.28 0 0 0 512 619.52a327.04 327.04 0 0 0 119.68-24.32l48 48A401.92 401.92 0 0 1 512 682.88a410.88 410.88 0 0 1-184.96-47.36 692.48 692.48 0 0 1-146.56-102.4A928 928 0 0 1 46.72 384a31.36 31.36 0 0 1 0-35.84 928 928 0 0 1 133.76-147.2l32-26.88z m631.04 357.12q-28.8 25.6-59.52 48.64l102.4 102.4a33.28 33.28 0 0 1 0 47.36 33.28 33.28 0 0 1-47.36 0L198.4 83.84a33.28 33.28 0 0 1 0-47.36 33.28 33.28 0 0 1 47.36 0l69.12 69.76 14.72-7.68a410.88 410.88 0 0 1 182.4-44.8 410.88 410.88 0 0 1 184.96 47.36 692.48 692.48 0 0 1 146.56 101.76 928 928 0 0 1 133.76 147.2 31.36 31.36 0 0 1 0 35.84 927.36 927.36 0 0 1-133.76 147.2z m-192-165.12A141.44 141.44 0 0 0 448 243.2l192 192a140.8 140.8 0 0 0 13.44-67.2z m147.84-119.04A465.28 465.28 0 0 0 512 116.48a348.16 348.16 0 0 0-152.96 39.04l41.6 41.6a204.16 204.16 0 0 1 282.24 282.88l56.32 56.32a716.16 716.16 0 0 0 64-49.28 913.28 913.28 0 0 0 111.36-119.04 913.28 913.28 0 0 0-113.92-118.4zM512 512a141.44 141.44 0 0 0 30.08-3.2l49.92 49.92A204.16 204.16 0 0 1 324.48 288l49.92 49.92A141.44 141.44 0 0 0 512 512z"  horiz-adv-x="1024" />

    
    <glyph glyph-name="shenfenyanzheng" unicode="&#59079;" d="M276.7 170.1h137.8c5.4 0 9.8-4.4 9.8-9.7v-19.5c0-5.4-4.4-9.7-9.8-9.7H276.7c-5.4 0-9.8 4.4-9.8 9.7v19.5c0 5.3 4.4 9.7 9.8 9.7z m-9.8 165.5c0 5.4 4.4 9.7 9.8 9.7h177.2c5.4 0 9.8-4.4 9.8-9.7v-19.5c0-5.4-4.4-9.7-9.8-9.7H276.7c-5.4 0-9.8 4.3-9.8 9.7v19.5z m121.8 223.8c18.3-5.6 35.8-12.6 51.9-22.4 8.5-5.2 16.5-10.9 22.3-18.7 3.6-4.8 5.6-10 5.5-15.9 0-0.8-0.1-1.7 0-2.6 1.2-12.6-17.6-26-17.6-26H280.5l-38.6-0.1s-7.8 4.5-11.2 7.3c-4.7 3.9-7 9.1-6.9 14.9 0.1 4.5-0.1 9.2 1.1 13.5 2.2 8.5 8.9 14.3 15.9 19.8 11.1 8.7 23.8 15.1 36.9 20.8 8.2 3.6 16.7 6.8 25.2 9.7 11 3.8 20 20.5 15.9 31.1-0.3 0.7-0.8 1.2-1.3 1.8-11.8 14.3-19.2 25-23 43.8-3 14.8-3 29.6 1.3 44.1 6 20.2 18.5 32.9 37.2 37.6 4.8 1.2 9.5 1.8 14.2 1.8 11.2 0 21.9-3.6 31.7-11.5 10.8-8.7 17-20.8 19.6-35.2 2.6-14.2 1.8-28.3-1.7-42.2-3.9-15.7-10.2-29.9-20-42.1-3.9-4.9-4.8-10.3-4.7-16.3 0.1-6.5 9.3-11 16.6-13.2z m468.8 175.3c0 32.3-26.4 58.4-59.1 58.4h-630c-32.6 0-59.1-26.2-59.1-58.4v-681.4c0-32.3 26.4-58.4 59.1-58.4h295.3l39.4-38.9H148.8c-43.5 0-78.7 34.9-78.7 77.9V754.2c0 43 35.3 77.9 78.7 77.9h669.3c43.5 0 78.7-34.9 78.7-77.9v-331l-39.4 19.5v292z m-128-97.3H611.4c-5.4 0-9.8 4.3-9.8 9.7v19.5c0 5.4 4.4 9.7 9.8 9.7h118.1c5.4 0 9.8-4.4 9.8-9.7v-19.5c0.1-5.4-4.4-9.7-9.8-9.7z m9.9-126.6c0-5.4-4.4-9.7-9.8-9.7H611.4c-5.4 0-9.8 4.4-9.8 9.7v19.5c0 5.4 4.4 9.7 9.8 9.7h118.1c5.4 0 9.8-4.3 9.8-9.7v-19.5z m-19.7-107.1c130.5 0 236.2-104.6 236.2-233.6S850.1-63.5 719.7-63.5 483.4 41 483.4 170.1c0 129 105.8 233.6 236.3 233.6z m0-428.3c108.7 0 196.9 87.2 196.9 194.7 0 107.5-88.1 194.7-196.9 194.7-108.7 0-196.9-87.2-196.9-194.7 0-107.6 88.1-194.7 196.9-194.7zM608.9 181.2c3.7 4 9.9 4.2 13.9 0.5l65.1-59.5 126.9 135.9c3.7 4 9.9 4.2 13.9 0.5l14.5-13.2c4-3.7 4.2-9.8 0.6-13.8l-147-157.2c-3.7-3.9-9.9-4.2-13.9-0.5l-14.5 13.2-72.3 66.1c-4 3.6-4.2 9.8-0.6 13.8l13.4 14.2z"  horiz-adv-x="1024" />

    
    <glyph glyph-name="TT" unicode="&#59201;" d="M432.004061 770.178363H116.019387c-27.612894 0-49.997718-22.384823-49.997718-49.997717s22.384823-49.997718 49.997718-49.997718h125.975133v-621.110023c0-27.613918 22.384823-49.997718 49.997717-49.997718s49.997718 22.3838 49.997718 49.997718V670.182928h90.014106c27.612894 0 49.997718 22.384823 49.997718 49.997718s-22.384823 49.997718-49.997718 49.997717zM907.980613 770.178363H591.995939c-27.612894 0-49.997718-22.384823-49.997718-49.997717s22.384823-49.997718 49.997718-49.997718h103.976096v-621.110023c0-27.613918 22.384823-49.997718 49.997718-49.997718s49.997718 22.3838 49.997717 49.997718V670.182928h112.01212c27.613918 0 49.997718 22.384823 49.997717 49.997718s-22.382776 49.997718-49.996694 49.997717z"  horiz-adv-x="1024" />

    
    <glyph glyph-name="zuo" unicode="&#58882;" d="M34.99065406 390.91588777l807.4766353 0L842.46728938 316.14953245000004 34.99065406 316.14953245000004l0 74.76635532zM803.58878469 465.68224308L992 355.02803714000004l-188.41121531-113.64486 0 224.29906594z"  horiz-adv-x="1024" />

    
    <glyph glyph-name="web__zanwujilu" unicode="&#58904;" d="M624.76-65.298H391.153a6.614 6.614 0 0 0-6.612 6.61 6.61 6.61 0 0 0 6.612 6.606h233.605a6.61 6.61 0 0 0 6.612-6.606 6.612 6.612 0 0 0-6.612-6.61z m-23.1 808.044c-7.511 0-14.305 5.153-16.078 12.782l-13.118 56.32c-2.07 8.89 3.458 17.77 12.343 19.84 8.89 2.07 17.771-3.457 19.841-12.343l13.117-56.325c2.07-8.89-3.454-17.77-12.343-19.84a16.75 16.75 0 0 0-3.762-0.434z m183.91-145.25c-1.088 0-2.188 0.104-3.292 0.33l-56.686 11.447c-8.943 1.805-14.73 10.521-12.927 19.467 1.81 8.946 10.525 14.73 19.47 12.925l56.688-11.446c8.941-1.805 14.73-10.525 12.925-19.468-1.588-7.844-8.476-13.256-16.178-13.256zM695.21 711.09c-4.759 0-9.481 2.042-12.749 5.996-5.809 7.037-4.818 17.454 2.215 23.264l48.609 40.159c7.036 5.815 17.448 4.822 23.263-2.214 5.815-7.033 4.818-17.448-2.214-23.264l-48.609-40.158a16.464 16.464 0 0 0-10.515-3.783z m159.61-729.905H465.117l273.162 99.01c16.922 6.132 30.443 18.488 38.076 34.792 7.629 16.305 8.45 34.605 2.318 51.529l-17.71 48.85c-2.174 6.005-8.81 9.11-14.813 6.931-6.006-2.174-9.11-8.81-6.932-14.813l17.704-48.849c4.027-11.116 3.489-23.132-1.521-33.844-5.01-10.706-13.892-18.822-25.008-22.849L422.989-9.483c-11.122-4.026-23.138-3.487-33.845 1.523-10.707 5.014-18.823 13.89-22.85 25.008L196.442 485.659c-8.315 22.94 3.584 48.375 26.53 56.69l307.406 111.428c11.116 4.027 23.132 3.484 33.843-1.526 10.707-5.01 18.823-13.892 22.847-24.99l69.38-192.09c2.17-6.01 8.797-9.12 14.81-6.95 6.005 2.17 9.114 8.798 6.944 14.804L608.816 635.13c-6.133 16.922-18.488 30.443-34.792 38.076-16.306 7.629-34.606 8.45-51.528 2.318L215.086 564.1c-34.937-12.665-53.055-51.389-40.394-86.324l169.853-468.609c8.262-22.793 27.611-38.414 49.767-43.016a8.114 8.114 0 0 1 4.44-1.318h5.793c1.14-0.056 2.279-0.1 3.427-0.1 1.144 0 2.288 0.039 3.436 0.1h443.414c4.518 0 8.176 3.662 8.176 8.177s-3.66 8.176-8.177 8.176z m-80.245 494.862L756.61 485.8c-7.175 3.887-17.448-1.175-22.954-11.317L584.131 198.886c-0.666-1.227-1.01-2.58-0.965-3.823l0.978-30.492a4.7 4.7 0 0 1-1.387-0.3l-46.448-17.309a4.956 4.956 0 1 1 3.461-9.29l44.706 16.662 0.012-0.356c0.11-3.362 2.874-4.862 5.749-3.118l35.162 21.289c1.065 0.644 2.014 1.666 2.68 2.893l149.524 275.6c5.502 10.136 4.149 21.514-3.027 25.405z m-334.26-364.87l-34.088-12.703a4.954 4.954 0 0 1-2.913-6.375 4.957 4.957 0 0 1 6.375-2.914l34.087 12.704a4.956 4.956 0 0 1 2.915 6.375 4.95 4.95 0 0 1-6.377 2.913z m71.22 26.552l-46.448-17.314a4.955 4.955 0 0 1-2.914-6.375 4.957 4.957 0 0 1 6.375-2.914l46.448 17.312a4.953 4.953 0 0 1 2.914 6.377 4.953 4.953 0 0 1-6.376 2.914z m-136.713 76.617a4.96 4.96 0 0 0-4.65 3.228 4.96 4.96 0 0 0 2.913 6.375l29.148 10.864a4.957 4.957 0 0 0 3.462-9.289l-29.147-10.864a4.9 4.9 0 0 0-1.726-0.314z m53.916 20.098a4.962 4.962 0 0 0-4.645 3.232 4.956 4.956 0 0 0 2.913 6.376l46.448 17.314a4.956 4.956 0 0 0 6.375-2.913 4.953 4.953 0 0 0-2.913-6.377l-46.448-17.314a4.914 4.914 0 0 0-1.73-0.318z m71.219 26.546a4.963 4.963 0 0 0-4.644 3.227 4.953 4.953 0 0 0 2.913 6.376l46.448 17.319a4.956 4.956 0 0 0 6.375-2.914 4.953 4.953 0 0 0-2.913-6.376l-46.449-17.314a4.947 4.947 0 0 0-1.73-0.318z m71.22 26.552a4.957 4.957 0 0 0-1.73 9.603l46.447 17.313a4.955 4.955 0 0 0 6.376-2.913 4.954 4.954 0 0 0-2.913-6.375l-46.448-17.315a4.953 4.953 0 0 0-1.731-0.313z m0 0"  horiz-adv-x="1024" />

    
    <glyph glyph-name="jinrongbaipishu" unicode="&#58966;" d="M895.426013 888.842736H614.24778C575.905294 888.842736 537.562808 863.281078 512.00115 831.329006 492.829907 863.281078 454.487421 888.842736 409.75452 888.842736H134.966702c-70.294558 0-127.808288-57.513729-127.808288-127.808288v-683.774338c0-70.294558 57.513729-121.417873 121.417874-121.417873h230.054917c38.342486-44.732901 89.465801-70.294558 146.979531-70.294559 57.513729 0 115.027459 25.561658 146.979531 70.294559h230.054917c70.294558 0 121.417873 57.513729 121.417873 121.417873V761.034448c12.780829 70.294558-44.732901 127.808288-108.637044 127.808288z m76.684973-811.582626c0-44.732901-38.342486-76.684973-76.684973-76.684973h-242.835746c-6.390414 0-12.780829-6.390414-19.171244-6.390414-25.561658-38.342486-70.294558-63.904144-115.027458-63.904144s-89.465801 25.561658-115.027459 63.904144c-12.780829 0-19.171243 6.390414-25.561658 6.390414H134.966702c-44.732901 0-76.684973 38.342486-76.684973 76.684973V761.034448c0 44.732901 38.342486 76.684973 76.684973 76.684973h274.787818c44.732901 0 76.684973-38.342486 76.684973-76.684973V256.191712c0-12.780829 12.780829-25.561658 25.561657-25.561657s25.561658 12.780829 25.561658 25.561657V761.034448c0 44.732901 38.342486 76.684973 76.684972 76.684973H895.426013c44.732901 0 76.684973-38.342486 76.684973-76.684973v-683.774338z m0 0M352.240791 677.959061H186.090017c-12.780829 0-25.561658-12.780829-25.561658-25.561657s12.780829-25.561658 25.561658-25.561658h166.150774c12.780829 0 25.561658 12.780829 25.561657 25.561658 0 19.171243-12.780829 25.561658-25.561657 25.561657z m0-236.445332H186.090017c-12.780829 0-25.561658-12.780829-25.561658-25.561657s12.780829-25.561658 25.561658-25.561658h166.150774c12.780829 0 25.561658 12.780829 25.561657 25.561658 0 19.171243-12.780829 25.561658-25.561657 25.561657z m0-230.054917H186.090017c-12.780829 0-25.561658-12.780829-25.561658-25.561658s12.780829-25.561658 25.561658-25.561657h166.150774c12.780829 0 25.561658 12.780829 25.561657 25.561657s-12.780829 25.561658-25.561657 25.561658z m485.671493 466.500249h-166.150774c-12.780829 0-25.561658-12.780829-25.561658-25.561657s12.780829-25.561658 25.561658-25.561658h166.150774c12.780829 0 25.561658 12.780829 25.561657 25.561658-6.390414 19.171243-12.780829 25.561658-25.561657 25.561657z m0-236.445332h-166.150774c-12.780829 0-25.561658-12.780829-25.561658-25.561657s12.780829-25.561658 25.561658-25.561658h166.150774c12.780829 0 25.561658 12.780829 25.561657 25.561658-6.390414 19.171243-12.780829 25.561658-25.561657 25.561657z m0-230.054917h-166.150774c-12.780829 0-25.561658-12.780829-25.561658-25.561658s12.780829-25.561658 25.561658-25.561657h166.150774c12.780829 0 25.561658 12.780829 25.561657 25.561657-6.390414 12.780829-12.780829 25.561658-25.561657 25.561658z m0 0"  horiz-adv-x="1025" />

    
    <glyph glyph-name="boke" unicode="&#59051;" d="M512 896C230.4 896 0 665.6 0 384s230.4-512 512-512 512 230.4 512 512S793.6 896 512 896z m-147.911111-813.511111l-71.111111 17.066667 2.844444 14.222222c25.6 99.555556 76.8 187.733333 147.911111 258.844444-22.755556 36.977778-19.911111 85.333333 8.533334 119.466667 34.133333 36.977778 88.177778 45.511111 130.844444 17.066667 42.666667-28.444444 56.888889-82.488889 34.133333-128-19.911111-42.666667-68.266667-62.577778-113.777777-54.044445-68.266667-62.577778-116.622222-142.222222-139.377778-233.244444v-11.377778zM768 290.133333c-48.355556-85.333333-139.377778-136.533333-236.088889-136.533333-14.222222 0-28.444444 0-45.511111 2.844444l-14.222222 2.844445 11.377778 71.111111 14.222222-2.844444c85.333333-14.222222 170.666667 28.444444 210.488889 105.244444 39.822222 76.8 25.6 170.666667-36.977778 230.4-65.422222 65.422222-170.666667 76.8-250.311111 25.6-79.644444-51.2-110.933333-153.6-73.955556-241.777778l5.688889-14.222222-68.266667-28.444444-5.688888 14.222222c-14.222222 31.288889-19.911111 68.266667-19.911112 102.4 0 113.777778 71.111111 216.177778 179.2 256 108.088889 39.822222 227.555556 8.533333 301.511112-79.644445 73.955556-82.488889 85.333333-207.644444 28.444444-307.2z"  horiz-adv-x="1024" />

    
    <glyph glyph-name="weibiaoti-" unicode="&#59142;" d="M983.521882 470.497882C930.936471 721.347765 693.067294 887.928471 439.476706 850.763294c-113.633882-16.655059-209.829647-67.614118-287.593412-152.154353-67.584-73.456941-107.791059-160.225882-122.127059-258.981647-2.319059-15.932235 7.107765-29.575529 22.648471-32.737882 17.227294-3.493647 30.930824 7.951059 33.822118 28.521412 4.698353 33.430588 13.522824 65.746824 26.202352 97.008941 78.245647 193.264941 282.864941 301.116235 488.026353 257.204706 195.704471-41.893647 337.257412-216.907294 336.534589-416.045177a425.140706 425.140706 0 0 0-19.275294-126.012235c-62.584471-201.125647-266.270118-328.071529-474.322824-293.918118-142.426353 23.371294-247.326118 100.683294-315.361882 227.779765-22.768941 42.556235-35.779765 88.455529-42.88753 136.101647-2.409412 16.173176-16.835765 26.292706-31.804235 23.582118a28.310588 28.310588 0 0 1-23.582118-32.828236c5.240471-36.171294 14.004706-71.439059 27.136-105.59247 87.762824-228.472471 328.583529-354.063059 568.832-296.658824 249.856 59.663059 410.503529 313.103059 357.797647 564.464941zM276.419765 492.393412c-2.590118 0-5.180235 0.090353-7.770353-0.030118a27.828706 27.828706 0 0 1-27.01553-26.774588c-0.632471-15.480471 9.547294-27.376941 25.057883-29.214118 3.584-0.421647 7.228235-0.391529 10.842353-0.391529h470.467764c2.590118 0 5.180235-0.060235 7.770353 0.060235 12.227765 0.572235 21.504 6.023529 26.051765 17.528471 4.638118 11.685647 2.048 22.287059-6.776471 31.35247-48.700235 50.085647-97.340235 100.231529-146.160941 150.256941-12.016941 12.378353-29.394824 12.920471-40.869647 1.807059-11.625412-11.233882-11.504941-28.431059 0.451765-40.929882 9.095529-9.547294 18.401882-18.913882 27.587765-28.370824l73.125647-75.264h-11.354353l-401.408-0.030117zM251.090824 262.053647c15.299765-15.420235 30.328471-31.111529 45.507764-46.712471 33.008941-33.942588 66.078118-67.824941 98.996706-101.888 8.432941-8.704 18.160941-12.830118 30.08753-9.456941 21.202824 5.993412 27.286588 31.232 11.354352 47.766589-29.455059 30.569412-59.181176 60.837647-88.786823 91.226352-3.403294 3.523765-6.716235 7.107765-11.685647 12.318118h11.324235l401.377883 0.030118c2.861176 0 5.692235-0.150588 8.523294 0.060235 13.312 1.054118 24.335059 11.233882 25.840941 23.853177 1.716706 13.914353-5.541647 26.624-18.341647 30.569411a57.042824 57.042824 0 0 1-16.835765 1.867294c-149.052235 0.090353-298.104471 0.090353-447.156706 0.090353-9.848471 0-19.666824 0.030118-29.485176-0.030117-13.101176-0.060235-23.341176-5.150118-28.220236-17.79953-4.638118-12.016941-1.656471-22.648471 7.499295-31.894588z"  horiz-adv-x="1024" />

    
    <glyph glyph-name="sousuo" unicode="&#58914;" d="M1020.366989-117.038052a36.268936 36.268936 0 0 0-51.961227 0L767.93935 83.947973a41.568981 41.568981 0 0 1-53.623986 4.468666A447.594007 447.594007 0 0 0 0.783797 474.280709 450.919526 450.919526 0 0 0 394.961664 892.672507a424.107533 424.107533 0 0 0 89.37331 1.766682 39.282687 39.282687 0 0 0 36.372859-36.996394 36.788549 36.788549 0 0 0-37.100316-36.476781h-3.325519c-10.392245 0.83138-21.408025 1.350992-32.319883 1.350992a374.120833 374.120833 0 1 1 241.41186-659.90758A373.185531 373.185531 0 0 1 821.043723 413.901763a36.788549 36.788549 0 1 0 72.745718-6.339269 446.86655 446.86655 0 0 0-80.643824-218.237153 41.568981 41.568981 0 0 1 4.884355-52.896529l202.337017-202.025249a36.476781 36.476781 0 0 0 0-51.441615zM692.907338 779.604877m-36.372859 0a36.372859 36.372859 0 1 1 72.745718 0 36.372859 36.372859 0 1 1-72.745718 0ZM826.967303 605.430845m-36.372859 0a36.372859 36.372859 0 1 1 72.745718 0 36.372859 36.372859 0 1 1-72.745718 0Z"  horiz-adv-x="1031" />

    
    <glyph glyph-name="icon-" unicode="&#58977;" d="M268.02606186-38.30899283999997a117.44211993 117.44211993 0 0 0-117.28124029 117.2812403L150.74482157 689.0277525399999A117.44211993 117.44211993 0 0 0 268.02606186 806.30899284l488.02831609 0a117.44211993 117.44211993 0 0 0 117.2812403-117.2812403l0-609.97506528a117.44211993 117.44211993 0 0 0-117.2812403-117.28124029z m0 792.97562884a65.79976308 65.79976308 0 0 1-65.71932328-65.71932326l0-609.97506528a65.79976308 65.79976308 0 0 1 65.71932328-65.71932326l488.02831609 0a65.79976308 65.79976308 0 0 1 65.71932328 65.71932326L821.77370123 689.0277525399999a65.79976308 65.79976308 0 0 1-65.71932328 65.71932326zM318.94446042 358.17882159a25.82117841 25.82117841 0 1 0 0 51.56191701l386.11107916 0a25.82117841 25.82117841 0 1 0 0-51.56191701zM318.94446042 236.23207242a25.82117841 25.82117841 0 1 0 0 51.24015779l263.44037172 0a25.82117841 25.82117841 0 1 0 0-51.64235684zM318.94446042 480.52776979a25.82117841 25.82117841 0 1 0 0 51.64235684l386.11107916 0a25.82117841 25.82117841 0 1 0 0-51.64235684z"  horiz-adv-x="1024" />

    
    <glyph glyph-name="shibai" unicode="&#58941;" d="M399.849 19.821c-6.024 0-12.048 2.293-16.634 6.879L146.8 263.114a23.37 23.37 0 0 0-6.89 16.634 23.369 23.369 0 0 0 6.891 16.635l200.333 200.333c3.632 3.632 9.521 3.632 13.152 0s3.632-9.521 0-13.152L159.953 283.23a4.893 4.893 0 0 1-1.442-3.482 4.89 4.89 0 0 1 1.442-3.481l236.415-236.414a4.93 4.93 0 0 1 6.964 0l79.861 79.861a9.301 9.301 0 0 0 13.152 0c3.632-3.632 3.632-9.521 0-13.152L416.483 26.7c-4.586-4.586-10.61-6.879-16.634-6.879zM353.71 241.45a9.3 9.3 0 0 0-9.3 9.3V577.577c0 12.971 10.553 23.524 23.524 23.524h44.182a9.3 9.3 0 0 0 0-18.6h-44.182a4.93 4.93 0 0 1-4.924-4.924v-326.828a9.3 9.3 0 0 0-9.3-9.299zM742.027 108.233H367.934c-12.971 0-23.524 10.553-23.524 23.524V256.02c0 5.137 4.164 9.3 9.3 9.3s9.3-4.163 9.3-9.3v-124.263a4.93 4.93 0 0 1 4.924-4.925h374.093a4.93 4.93 0 0 1 4.925 4.925V321.861a9.3 9.3 0 0 0 18.6 0v-190.104c0-12.971-10.553-23.524-23.525-23.524zM756.252 298.833a9.299 9.299 0 0 0-9.3 9.3V577.577a4.93 4.93 0 0 1-4.925 4.924H469.265a9.3 9.3 0 0 0 0 18.6h272.763c12.972 0 23.524-10.553 23.524-23.524v-269.444c0-5.137-4.163-9.3-9.3-9.3zM71.488 442.638a7.474 7.474 0 0 0-5.303 2.197 7.5 7.5 0 0 0 0 10.606l55.414 55.414a7.5 7.5 0 0 0 10.606 0 7.5 7.5 0 0 0 0-10.606l-55.414-55.414a7.472 7.472 0 0 0-5.303-2.197zM126.902 442.638a7.474 7.474 0 0 0-5.303 2.197l-55.414 55.414a7.5 7.5 0 0 0 0 10.606 7.5 7.5 0 0 0 10.606 0l55.414-55.414a7.5 7.5 0 0 0 0-10.606 7.472 7.472 0 0 0-5.303-2.197zM495.696 313.772a9.024 9.024 0 0 0-6.381 15.405L610.958 450.82a9.023 9.023 0 0 0 12.762 0 9.024 9.024 0 0 0 0-12.762L502.077 316.415a8.997 8.997 0 0 0-6.381-2.643zM617.339 313.772a8.995 8.995 0 0 0-6.381 2.643L489.314 438.058a9.024 9.024 0 0 0 0 12.762 9.023 9.023 0 0 0 12.762 0L623.72 329.177a9.024 9.024 0 0 0-6.381-15.405zM518.166 274.105h-58.063a5.64 5.64 0 1 0 0 11.28h58.063a5.64 5.64 0 1 0 0-11.28zM438.067 274.105H418.89a5.64 5.64 0 1 0 0 11.28h19.177a5.64 5.64 0 1 0 0-11.28zM694.144 274.105H546.368a5.64 5.64 0 1 0 0 11.28h147.777a5.64 5.64 0 1 0-0.001-11.28zM420.733 736.919c-17.923 0-32.505 14.582-32.505 32.505S402.81 801.93 420.733 801.93s32.505-14.582 32.505-32.505-14.581-32.506-32.505-32.506z m0 50.011c-9.652 0-17.505-7.853-17.505-17.505s7.853-17.505 17.505-17.505 17.505 7.853 17.505 17.505-7.852 17.505-17.505 17.505zM863.629 91.53c-15.904 0-28.844 12.938-28.844 28.843s12.939 28.844 28.844 28.844 28.844-12.939 28.844-28.844-12.94-28.843-28.844-28.843z m0 42.686c-7.634 0-13.844-6.21-13.844-13.844 0-7.633 6.21-13.843 13.844-13.843s13.844 6.21 13.844 13.843c0 7.634-6.21 13.844-13.844 13.844zM919.451 646.631h-67.166c-4.143 0-7.5 3.358-7.5 7.5s3.357 7.5 7.5 7.5h67.166c4.143 0 7.5-3.358 7.5-7.5s-3.357-7.5-7.5-7.5zM498.218-26.659H382.246c-4.142 0-7.5 3.357-7.5 7.5s3.358 7.5 7.5 7.5h115.972c4.143 0 7.5-3.357 7.5-7.5s-3.358-7.5-7.5-7.5zM318.959-26.659H139.7c-4.142 0-7.5 3.357-7.5 7.5s3.358 7.5 7.5 7.5h179.259c4.142 0 7.5-3.357 7.5-7.5s-3.358-7.5-7.5-7.5zM892.086-26.659h-403.69c-4.143 0-7.5 3.357-7.5 7.5s3.357 7.5 7.5 7.5h403.69c4.143 0 7.5-3.357 7.5-7.5s-3.357-7.5-7.5-7.5zM950.512-26.659h-27.206c-4.143 0-7.5 3.357-7.5 7.5s3.357 7.5 7.5 7.5h27.206c4.143 0 7.5-3.357 7.5-7.5s-3.358-7.5-7.5-7.5z"  horiz-adv-x="1024" />

    
    <glyph glyph-name="tuandui" unicode="&#58918;" d="M185.6-3.2c-19.2 0-32 16-32 32v73.6c0 147.2 89.6 278.4 227.2 332.8l6.4 3.2-3.2 3.2C332.8 483.2 300.8 544 300.8 608a214.4 214.4 0 0 0 428.8 0c0-67.2-28.8-128-83.2-166.4l-6.4-6.4 6.4-3.2C784 377.6 873.6 246.4 873.6 99.2v-73.6c0-19.2-16-32-32-32h-656zM512 400c-172.8 0-313.6-137.6-313.6-310.4V48h624v41.6C825.6 262.4 684.8 400 512 400z m0 368c-89.6 0-160-70.4-160-160s73.6-160 160-160c89.6 0 160 70.4 160 160s-70.4 160-160 160z m409.6-665.6c0 22.4-3.2 35.2-6.4 57.6h51.2v32c0 99.2-67.2 188.8-166.4 214.4l-6.4 3.2c-12.8 3.2-22.4 16-22.4 32 0 12.8 9.6 25.6 22.4 32 41.6 19.2 67.2 57.6 67.2 102.4 0 48-48 89.6-92.8 105.6-6.4 22.4-16 44.8-32 64 0 3.2-3.2 6.4-6.4 6.4h3.2C832 752 912 672 912 576c0-44.8-16-86.4-48-118.4l-3.2-9.6 3.2-3.2c96-48 153.6-147.2 153.6-252.8v-54.4c0-19.2-16-32-32-32h-64z m-883.2 0c-19.2 0-32 16-32 32V192c0 108.8 60.8 204.8 153.6 252.8l3.2 3.2-3.2 3.2c-28.8 32-48 73.6-48 118.4 0 99.2 80 176 179.2 176h3.2s0-3.2-3.2-6.4c-16-19.2-25.6-41.6-35.2-64-41.6-12.8-86.4-51.2-86.4-102.4 0-44.8 25.6-83.2 67.2-102.4 12.8-6.4 22.4-16 22.4-32 0-12.8-9.6-25.6-22.4-32l-6.4-3.2C131.2 380.8 64 294.4 64 192v-32h44.8c-3.2-22.4-6.4-35.2-6.4-57.6h-64z"  horiz-adv-x="1024" />

    


  </font>
</defs>
</svg>
